<svg xmlns="http://www.w3.org/2000/svg" xmlns:xlink="http://www.w3.org/1999/xlink" width="500" zoomAndPan="magnify" viewBox="0 0 375 374.999991" height="500" preserveAspectRatio="xMidYMid meet" version="1.0"><defs><clipPath id="767aec98f5"><path d="M 81 64.628906 L 294 64.628906 L 294 296.378906 L 81 296.378906 Z M 81 64.628906 " clip-rule="nonzero"/></clipPath></defs><g clip-path="url(#767aec98f5)"><path fill="#ffffff" d="M 284.160156 103.292969 L 244.519531 103.292969 C 240.023438 81.265625 220.507812 64.628906 197.164062 64.628906 L 177.828125 64.628906 C 154.496094 64.628906 134.96875 81.265625 130.472656 103.292969 L 90.832031 103.292969 C 85.496094 103.292969 81.164062 107.613281 81.164062 112.960938 C 81.164062 118.304688 85.496094 122.625 90.832031 122.625 L 99.144531 122.625 L 111.671875 252.921875 C 114.070312 277.839844 134.753906 296.625 159.78125 296.625 L 215.140625 296.625 C 240.207031 296.625 260.894531 277.804688 263.261719 252.855469 L 275.597656 122.625 L 284.152344 122.625 C 289.488281 122.625 293.816406 118.304688 293.816406 112.960938 C 293.816406 107.613281 289.488281 103.292969 284.152344 103.292969 Z M 177.828125 83.960938 L 197.164062 83.960938 C 209.75 83.960938 220.382812 92.070312 224.382812 103.292969 L 150.617188 103.292969 C 154.621094 92.070312 165.253906 83.960938 177.839844 83.960938 Z M 223.328125 222.125 C 227.109375 225.902344 227.109375 232.011719 223.328125 235.792969 C 221.445312 237.675781 218.96875 238.625 216.496094 238.625 C 214.019531 238.625 211.546875 237.675781 209.660156 235.792969 L 187.496094 213.628906 L 165.332031 235.792969 C 163.445312 237.675781 160.972656 238.625 158.496094 238.625 C 156.023438 238.625 153.546875 237.675781 151.664062 235.792969 C 147.882812 232.011719 147.882812 225.902344 151.664062 222.125 L 173.828125 199.957031 L 151.664062 177.792969 C 147.882812 174.015625 147.882812 167.90625 151.664062 164.125 C 155.441406 160.34375 161.550781 160.34375 165.332031 164.125 L 187.496094 186.289062 L 209.660156 164.125 C 213.441406 160.34375 219.550781 160.34375 223.328125 164.125 C 227.109375 167.90625 227.109375 174.015625 223.328125 177.792969 L 201.164062 199.957031 Z M 223.328125 222.125 " fill-opacity="1" fill-rule="nonzero"/></g></svg>