<svg xmlns="http://www.w3.org/2000/svg" xmlns:xlink="http://www.w3.org/1999/xlink" width="500" zoomAndPan="magnify" viewBox="0 0 375 374.999991" height="500" preserveAspectRatio="xMidYMid meet" version="1.0"><defs><clipPath id="2b8bc7f02d"><path d="M 68.171875 68.171875 L 306.671875 68.171875 L 306.671875 306.671875 L 68.171875 306.671875 Z M 68.171875 68.171875 " clip-rule="nonzero"/></clipPath></defs><g clip-path="url(#2b8bc7f02d)"><path fill="#ffffff" d="M 157.667969 187.5 C 124.765625 187.5 98.003906 160.742188 98.003906 127.835938 C 98.003906 94.933594 124.765625 68.171875 157.667969 68.171875 C 190.574219 68.171875 217.332031 94.933594 217.332031 127.835938 C 217.332031 160.742188 190.574219 187.5 157.667969 187.5 Z M 200.128906 261.878906 C 192.042969 269.964844 187.5 280.921875 187.5 292.359375 L 187.5 306.824219 L 201.96875 306.824219 C 213.402344 306.824219 224.363281 302.28125 232.445312 294.199219 L 300.132812 226.507812 C 309.054688 217.589844 309.054688 203.113281 300.132812 194.191406 C 291.214844 185.273438 276.734375 185.273438 267.816406 194.191406 Z M 167.613281 292.359375 C 167.613281 275.53125 174.164062 259.710938 186.058594 247.820312 L 209.683594 224.191406 C 195.007812 213.652344 177.078125 207.378906 157.667969 207.378906 C 108.328125 207.386719 68.171875 247.539062 68.171875 296.882812 C 68.171875 302.371094 72.628906 306.824219 78.117188 306.824219 L 167.613281 306.824219 Z M 167.613281 292.359375 " fill-opacity="1" fill-rule="nonzero"/></g></svg>