<?xml version="1.0" standalone="no"?>
<!DOCTYPE svg PUBLIC "-//W3C//DTD SVG 20010904//EN"
 "http://www.w3.org/TR/2001/REC-SVG-20010904/DTD/svg10.dtd">
<svg version="1.0" xmlns="http://www.w3.org/2000/svg"
 width="24.000000pt" height="24.000000pt" viewBox="0 0 24.000000 24.000000"
 preserveAspectRatio="xMidYMid meet">

<g transform="translate(0.000000,24.000000) scale(0.100000,-0.100000)"
fill="#000000" stroke="none">
<path d="M10 205 c0 -14 5 -25 10 -25 6 0 10 7 10 15 0 8 7 15 15 15 8 0 15 5
15 10 0 6 -11 10 -25 10 -20 0 -25 -5 -25 -25z"/>
<path d="M180 220 c0 -5 7 -10 15 -10 8 0 15 -7 15 -15 0 -8 5 -15 10 -15 6 0
10 11 10 25 0 20 -5 25 -25 25 -14 0 -25 -4 -25 -10z"/>
<path d="M63 180 c-64 -38 -64 -82 0 -120 40 -25 74 -25 114 0 42 25 57 54 43
81 -15 27 -69 59 -100 59 -14 0 -39 -9 -57 -20z m91 -26 c31 -30 9 -84 -34
-84 -10 0 -26 7 -34 16 -31 30 -9 84 34 84 10 0 26 -7 34 -16z"/>
<path d="M94 136 c-10 -26 4 -48 28 -44 33 4 33 52 0 56 -13 2 -25 -3 -28 -12z"/>
<path d="M10 35 c0 -20 5 -25 25 -25 14 0 25 5 25 10 0 6 -7 10 -15 10 -8 0
-15 7 -15 15 0 8 -4 15 -10 15 -5 0 -10 -11 -10 -25z"/>
<path d="M210 45 c0 -8 -7 -15 -15 -15 -8 0 -15 -4 -15 -10 0 -5 11 -10 25
-10 20 0 25 5 25 25 0 14 -4 25 -10 25 -5 0 -10 -7 -10 -15z"/>
</g>
</svg>
