<svg xmlns="http://www.w3.org/2000/svg" xmlns:xlink="http://www.w3.org/1999/xlink" width="40" zoomAndPan="magnify" viewBox="0 0 30 30.000001" height="40" preserveAspectRatio="xMidYMid meet" version="1.0"><defs><clipPath id="720bcf0578"><path d="M 19 4.171875 L 25.707031 4.171875 L 25.707031 10 L 19 10 Z M 19 4.171875 " clip-rule="nonzero"/></clipPath><clipPath id="934e20f46f"><path d="M 4.65625 5 L 25 5 L 25 25 L 4.65625 25 Z M 4.65625 5 " clip-rule="nonzero"/></clipPath></defs><path fill="#ffffff" d="M 10.121094 15.792969 L 18.660156 7.253906 L 22.261719 10.855469 L 13.722656 19.394531 L 9.671875 19.84375 Z M 10.121094 15.792969 " fill-opacity="1" fill-rule="nonzero"/><g clip-path="url(#720bcf0578)"><path fill="#ffffff" d="M 19.753906 6.164062 L 21.226562 4.691406 C 21.34375 4.574219 21.480469 4.480469 21.636719 4.417969 C 21.792969 4.351562 21.957031 4.320312 22.125 4.320312 C 22.292969 4.320312 22.457031 4.351562 22.613281 4.417969 C 22.765625 4.480469 22.90625 4.574219 23.023438 4.691406 L 24.824219 6.492188 C 24.941406 6.609375 25.035156 6.75 25.097656 6.90625 C 25.164062 7.058594 25.195312 7.222656 25.195312 7.390625 C 25.195312 7.558594 25.164062 7.722656 25.097656 7.878906 C 25.035156 8.035156 24.941406 8.171875 24.824219 8.292969 L 23.351562 9.761719 Z M 19.753906 6.164062 " fill-opacity="1" fill-rule="nonzero"/></g><g clip-path="url(#934e20f46f)"><path fill="#ffffff" d="M 23.730469 15.324219 C 23.527344 15.324219 23.355469 15.394531 23.210938 15.539062 C 23.066406 15.679688 22.996094 15.855469 22.996094 16.054688 L 22.996094 22.660156 C 22.996094 22.859375 22.925781 23.035156 22.78125 23.175781 C 22.636719 23.320312 22.464844 23.390625 22.261719 23.390625 L 6.859375 23.390625 C 6.65625 23.390625 6.480469 23.320312 6.339844 23.175781 C 6.195312 23.035156 6.125 22.859375 6.125 22.660156 L 6.125 7.253906 C 6.125 7.050781 6.195312 6.878906 6.339844 6.734375 C 6.480469 6.59375 6.65625 6.519531 6.859375 6.519531 L 13.460938 6.519531 C 13.664062 6.519531 13.835938 6.449219 13.976562 6.304688 C 14.121094 6.164062 14.191406 5.988281 14.191406 5.789062 C 14.191406 5.585938 14.121094 5.410156 13.976562 5.269531 C 13.835938 5.125 13.664062 5.054688 13.460938 5.054688 L 6.859375 5.054688 C 6.566406 5.054688 6.285156 5.109375 6.015625 5.222656 C 5.746094 5.332031 5.507812 5.492188 5.300781 5.699219 C 5.09375 5.90625 4.9375 6.140625 4.824219 6.410156 C 4.714844 6.683594 4.65625 6.960938 4.65625 7.253906 L 4.65625 22.660156 C 4.65625 22.949219 4.714844 23.230469 4.824219 23.5 C 4.9375 23.769531 5.09375 24.007812 5.300781 24.214844 C 5.507812 24.421875 5.746094 24.578125 6.015625 24.691406 C 6.285156 24.804688 6.566406 24.859375 6.859375 24.859375 L 22.261719 24.859375 C 22.554688 24.859375 22.835938 24.804688 23.105469 24.691406 C 23.375 24.578125 23.613281 24.421875 23.816406 24.214844 C 24.023438 24.007812 24.183594 23.769531 24.296875 23.5 C 24.40625 23.230469 24.460938 22.949219 24.460938 22.660156 L 24.460938 16.054688 C 24.460938 15.855469 24.390625 15.679688 24.246094 15.539062 C 24.105469 15.394531 23.929688 15.324219 23.730469 15.324219 Z M 23.730469 15.324219 " fill-opacity="1" fill-rule="nonzero"/></g></svg>