<svg xmlns="http://www.w3.org/2000/svg" xmlns:xlink="http://www.w3.org/1999/xlink" width="500" zoomAndPan="magnify" viewBox="0 0 375 374.999991" height="500" preserveAspectRatio="xMidYMid meet" version="1.0"><path fill="#ffffff" d="M 108.46875 74.265625 C 76.59375 74.265625 50.640625 100.265625 50.640625 132.089844 L 50.640625 267.015625 C 50.640625 298.890625 76.59375 324.839844 108.46875 324.839844 L 243.394531 324.839844 C 275.269531 324.839844 301.21875 298.890625 301.21875 267.015625 L 301.21875 209.191406 C 301.21875 203.871094 296.902344 199.554688 291.582031 199.554688 C 286.261719 199.554688 281.945312 203.871094 281.945312 209.191406 L 281.945312 267.015625 C 281.945312 288.550781 264.929688 305.566406 243.394531 305.566406 L 108.46875 305.566406 C 86.984375 305.566406 69.917969 288.550781 69.917969 267.015625 L 69.917969 132.089844 C 69.917969 110.605469 86.984375 93.539062 108.46875 93.539062 L 166.292969 93.539062 C 171.613281 93.539062 175.929688 89.222656 175.929688 83.902344 C 175.929688 78.582031 171.613281 74.265625 166.292969 74.265625 Z M 108.46875 74.265625 " fill-opacity="1" fill-rule="nonzero"/><path fill="#ffffff" d="M 246.507812 67.640625 L 134.671875 179.476562 C 133.164062 180.980469 132.210938 182.9375 131.960938 184.996094 L 124.632812 238.804688 C 123.777344 245.03125 128.996094 250.351562 135.273438 249.699219 L 190.238281 243.574219 C 192.445312 243.324219 194.453125 242.371094 196.007812 240.8125 L 307.84375 129.027344 C 324.710938 112.113281 324.710938 84.554688 307.84375 67.640625 C 291.28125 50.371094 262.71875 51.925781 246.507812 67.640625 Z M 294.191406 81.292969 C 303.730469 90.828125 303.730469 105.789062 294.191406 115.375 L 283.953125 125.613281 L 249.917969 91.53125 L 260.109375 81.292969 C 271.304688 70.097656 285.105469 72.207031 294.191406 81.292969 Z M 236.265625 105.136719 L 270.347656 139.21875 L 184.765625 224.800781 L 145.410156 229.167969 L 150.582031 190.820312 Z M 236.265625 105.136719 " fill-opacity="1" fill-rule="nonzero"/></svg>