<svg xmlns="http://www.w3.org/2000/svg" xmlns:xlink="http://www.w3.org/1999/xlink" width="40" zoomAndPan="magnify" viewBox="0 0 30 30.000001" height="40" preserveAspectRatio="xMidYMid meet" version="1.0"><defs><clipPath id="3f53b6e8c2"><path d="M 5 1.742188 L 25 1.742188 L 25 27.144531 L 5 27.144531 Z M 5 1.742188 " clip-rule="nonzero"/></clipPath></defs><g clip-path="url(#3f53b6e8c2)"><path fill="#38b6ff" d="M 24.574219 8.386719 C 24.574219 7.207031 24.160156 6.203125 23.324219 5.375 L 20.941406 2.988281 C 20.109375 2.160156 19.105469 1.746094 17.929688 1.742188 L 8.609375 1.742188 C 8.1875 1.742188 7.78125 1.824219 7.390625 1.984375 C 6.996094 2.148438 6.652344 2.378906 6.351562 2.675781 C 6.054688 2.976562 5.824219 3.320312 5.660156 3.710938 C 5.5 4.105469 5.417969 4.511719 5.417969 4.933594 L 5.417969 27.28125 L 24.574219 27.28125 Z M 21.820312 6.878906 C 21.875 6.9375 21.925781 7 21.972656 7.0625 L 19.253906 7.0625 L 19.253906 4.34375 C 19.316406 4.390625 19.375 4.441406 19.433594 4.492188 Z M 7.546875 25.152344 L 7.546875 4.933594 C 7.546875 4.792969 7.574219 4.65625 7.628906 4.527344 C 7.679688 4.398438 7.757812 4.28125 7.859375 4.183594 C 7.957031 4.082031 8.074219 4.003906 8.203125 3.953125 C 8.332031 3.898438 8.46875 3.871094 8.609375 3.871094 L 17.125 3.871094 L 17.125 9.191406 L 22.445312 9.191406 L 22.445312 25.152344 Z M 10.738281 11.320312 L 19.253906 11.320312 L 19.253906 13.449219 L 10.738281 13.449219 Z M 10.738281 15.574219 L 19.253906 15.574219 L 19.253906 17.703125 L 10.738281 17.703125 Z M 17.144531 19.632812 L 19.234375 20.023438 C 19.03125 21.136719 18.164062 23.023438 16.203125 23.023438 C 15.410156 23.023438 14.707031 22.773438 14.089844 22.273438 C 13.753906 22.035156 13.640625 21.960938 13.386719 21.960938 C 12.996094 22.109375 12.671875 22.339844 12.410156 22.664062 L 10.816406 21.261719 C 11.484375 20.445312 12.339844 19.96875 13.386719 19.832031 C 14.113281 19.839844 14.761719 20.078125 15.324219 20.539062 C 15.570312 20.773438 15.863281 20.890625 16.203125 20.894531 C 16.867188 20.894531 17.140625 19.648438 17.144531 19.632812 Z M 17.144531 19.632812 " fill-opacity="1" fill-rule="nonzero"/></g></svg>