<svg xmlns="http://www.w3.org/2000/svg" xmlns:xlink="http://www.w3.org/1999/xlink" width="40" zoomAndPan="magnify" viewBox="0 0 30 30.000001" height="40" preserveAspectRatio="xMidYMid meet" version="1.0"><defs><clipPath id="c6d7fe7b09"><path d="M 9 2.324219 L 21 2.324219 L 21 22 L 9 22 Z M 9 2.324219 " clip-rule="nonzero"/></clipPath><clipPath id="afb84897d9"><path d="M 2.804688 18 L 27.484375 18 L 27.484375 27 L 2.804688 27 Z M 2.804688 18 " clip-rule="nonzero"/></clipPath></defs><g clip-path="url(#c6d7fe7b09)"><path fill="#38b6ff" d="M 12.84375 20.734375 C 13.128906 21.019531 13.457031 21.238281 13.832031 21.394531 C 14.203125 21.550781 14.59375 21.625 14.996094 21.625 C 15.402344 21.625 15.789062 21.550781 16.164062 21.394531 C 16.539062 21.238281 16.867188 21.019531 17.152344 20.734375 L 20.414062 17.472656 C 20.597656 17.269531 20.683594 17.035156 20.679688 16.765625 C 20.671875 16.492188 20.570312 16.261719 20.378906 16.070312 C 20.1875 15.878906 19.957031 15.78125 19.6875 15.773438 C 19.414062 15.769531 19.179688 15.855469 18.980469 16.039062 L 16.007812 19.011719 L 16.015625 3.339844 C 16.011719 3.203125 15.988281 3.074219 15.9375 2.949219 C 15.886719 2.824219 15.8125 2.714844 15.714844 2.621094 C 15.621094 2.523438 15.511719 2.453125 15.386719 2.398438 C 15.261719 2.347656 15.132812 2.324219 14.996094 2.324219 C 14.863281 2.324219 14.734375 2.347656 14.609375 2.398438 C 14.484375 2.453125 14.375 2.523438 14.28125 2.621094 C 14.183594 2.714844 14.109375 2.824219 14.058594 2.949219 C 14.007812 3.074219 13.980469 3.203125 13.980469 3.339844 L 13.972656 18.992188 L 11.015625 16.039062 C 10.921875 15.941406 10.8125 15.871094 10.6875 15.816406 C 10.5625 15.765625 10.433594 15.742188 10.296875 15.742188 C 10.164062 15.742188 10.035156 15.765625 9.910156 15.820312 C 9.785156 15.871094 9.675781 15.945312 9.578125 16.039062 C 9.484375 16.132812 9.410156 16.242188 9.359375 16.367188 C 9.308594 16.492188 9.28125 16.621094 9.28125 16.757812 C 9.28125 16.890625 9.308594 17.019531 9.359375 17.144531 C 9.410156 17.269531 9.484375 17.378906 9.578125 17.476562 Z M 12.84375 20.734375 " fill-opacity="1" fill-rule="nonzero"/></g><g clip-path="url(#afb84897d9)"><path fill="#38b6ff" d="M 26.171875 18.578125 C 26.039062 18.578125 25.910156 18.601562 25.785156 18.65625 C 25.660156 18.707031 25.550781 18.78125 25.453125 18.875 C 25.359375 18.96875 25.285156 19.082031 25.234375 19.203125 C 25.183594 19.328125 25.15625 19.457031 25.15625 19.59375 L 25.15625 23.65625 C 25.15625 23.792969 25.132812 23.921875 25.078125 24.046875 C 25.027344 24.171875 24.953125 24.28125 24.859375 24.375 C 24.765625 24.472656 24.65625 24.542969 24.53125 24.597656 C 24.40625 24.648438 24.277344 24.671875 24.140625 24.671875 L 5.855469 24.671875 C 5.71875 24.671875 5.589844 24.648438 5.464844 24.597656 C 5.339844 24.542969 5.230469 24.472656 5.136719 24.375 C 5.039062 24.28125 4.96875 24.171875 4.914062 24.046875 C 4.863281 23.921875 4.839844 23.792969 4.839844 23.65625 L 4.839844 19.59375 C 4.839844 19.457031 4.8125 19.328125 4.761719 19.203125 C 4.710938 19.082031 4.636719 18.96875 4.539062 18.875 C 4.445312 18.78125 4.335938 18.707031 4.210938 18.65625 C 4.085938 18.601562 3.957031 18.578125 3.824219 18.578125 C 3.6875 18.578125 3.558594 18.601562 3.433594 18.65625 C 3.308594 18.707031 3.199219 18.78125 3.105469 18.875 C 3.007812 18.96875 2.933594 19.082031 2.882812 19.203125 C 2.832031 19.328125 2.804688 19.457031 2.804688 19.59375 L 2.804688 23.65625 C 2.804688 24.0625 2.882812 24.449219 3.039062 24.824219 C 3.191406 25.195312 3.414062 25.527344 3.699219 25.8125 C 3.984375 26.097656 4.316406 26.320312 4.6875 26.472656 C 5.0625 26.628906 5.449219 26.707031 5.855469 26.707031 L 24.140625 26.707031 C 24.546875 26.707031 24.933594 26.628906 25.308594 26.472656 C 25.679688 26.320312 26.011719 26.097656 26.296875 25.8125 C 26.582031 25.527344 26.800781 25.195312 26.957031 24.824219 C 27.113281 24.449219 27.1875 24.0625 27.1875 23.65625 L 27.1875 19.59375 C 27.1875 19.457031 27.164062 19.328125 27.113281 19.203125 C 27.058594 19.082031 26.988281 18.96875 26.890625 18.875 C 26.796875 18.78125 26.6875 18.707031 26.5625 18.65625 C 26.4375 18.601562 26.308594 18.578125 26.171875 18.578125 Z M 26.171875 18.578125 " fill-opacity="1" fill-rule="nonzero"/></g></svg>