<svg xmlns="http://www.w3.org/2000/svg" xmlns:xlink="http://www.w3.org/1999/xlink" width="40" zoomAndPan="magnify" viewBox="0 0 30 30.000001" height="40" preserveAspectRatio="xMidYMid meet" version="1.0"><defs><clipPath id="7385c353b0"><path d="M 9 2.757812 L 22 2.757812 L 22 23 L 9 23 Z M 9 2.757812 " clip-rule="nonzero"/></clipPath><clipPath id="838f1d01cb"><path d="M 3.386719 19 L 28 19 L 28 27.433594 L 3.386719 27.433594 Z M 3.386719 19 " clip-rule="nonzero"/></clipPath></defs><g clip-path="url(#7385c353b0)"><path fill="#ffffff" d="M 13.421875 21.167969 C 13.707031 21.453125 14.039062 21.675781 14.410156 21.832031 C 14.785156 21.984375 15.175781 22.0625 15.578125 22.0625 C 15.984375 22.0625 16.371094 21.984375 16.746094 21.832031 C 17.117188 21.675781 17.449219 21.453125 17.734375 21.167969 L 20.996094 17.90625 C 21.179688 17.707031 21.265625 17.46875 21.257812 17.199219 C 21.25 16.929688 21.152344 16.699219 20.960938 16.507812 C 20.769531 16.316406 20.539062 16.214844 20.265625 16.210938 C 19.996094 16.203125 19.761719 16.292969 19.558594 16.472656 L 16.585938 19.445312 L 16.59375 3.773438 C 16.59375 3.640625 16.570312 3.507812 16.515625 3.386719 C 16.464844 3.261719 16.390625 3.152344 16.296875 3.054688 C 16.203125 2.960938 16.089844 2.886719 15.96875 2.835938 C 15.84375 2.785156 15.714844 2.757812 15.578125 2.757812 C 15.445312 2.757812 15.3125 2.785156 15.191406 2.835938 C 15.066406 2.886719 14.957031 2.960938 14.859375 3.054688 C 14.765625 3.152344 14.691406 3.261719 14.640625 3.386719 C 14.589844 3.507812 14.5625 3.640625 14.5625 3.773438 L 14.554688 19.425781 L 11.597656 16.472656 C 11.5 16.378906 11.390625 16.304688 11.265625 16.253906 C 11.144531 16.203125 11.011719 16.175781 10.878906 16.175781 C 10.742188 16.175781 10.613281 16.203125 10.488281 16.253906 C 10.367188 16.304688 10.253906 16.378906 10.160156 16.472656 C 10.066406 16.570312 9.992188 16.679688 9.941406 16.804688 C 9.890625 16.929688 9.863281 17.058594 9.863281 17.191406 C 9.863281 17.328125 9.890625 17.457031 9.941406 17.582031 C 9.992188 17.707031 10.066406 17.816406 10.160156 17.910156 Z M 13.421875 21.167969 " fill-opacity="1" fill-rule="nonzero"/></g><g clip-path="url(#838f1d01cb)"><path fill="#ffffff" d="M 26.753906 19.011719 C 26.617188 19.011719 26.488281 19.039062 26.363281 19.089844 C 26.242188 19.140625 26.128906 19.214844 26.035156 19.3125 C 25.941406 19.40625 25.867188 19.515625 25.816406 19.640625 C 25.761719 19.765625 25.738281 19.894531 25.738281 20.027344 L 25.738281 24.09375 C 25.738281 24.226562 25.710938 24.355469 25.660156 24.480469 C 25.609375 24.605469 25.535156 24.714844 25.441406 24.8125 C 25.34375 24.90625 25.234375 24.980469 25.109375 25.03125 C 24.984375 25.082031 24.855469 25.109375 24.722656 25.109375 L 6.433594 25.109375 C 6.300781 25.109375 6.171875 25.082031 6.046875 25.03125 C 5.921875 24.980469 5.8125 24.90625 5.714844 24.8125 C 5.621094 24.714844 5.546875 24.605469 5.496094 24.480469 C 5.445312 24.355469 5.417969 24.226562 5.417969 24.09375 L 5.417969 20.027344 C 5.417969 19.894531 5.394531 19.765625 5.339844 19.640625 C 5.289062 19.515625 5.214844 19.40625 5.121094 19.3125 C 5.027344 19.214844 4.917969 19.140625 4.792969 19.089844 C 4.667969 19.039062 4.539062 19.011719 4.402344 19.011719 C 4.269531 19.011719 4.140625 19.039062 4.015625 19.089844 C 3.890625 19.140625 3.78125 19.214844 3.683594 19.3125 C 3.589844 19.40625 3.515625 19.515625 3.464844 19.640625 C 3.414062 19.765625 3.386719 19.894531 3.386719 20.027344 L 3.386719 24.09375 C 3.386719 24.496094 3.464844 24.886719 3.617188 25.257812 C 3.773438 25.632812 3.992188 25.960938 4.28125 26.246094 C 4.566406 26.535156 4.894531 26.753906 5.269531 26.910156 C 5.640625 27.0625 6.03125 27.140625 6.433594 27.140625 L 24.722656 27.140625 C 25.125 27.140625 25.515625 27.0625 25.886719 26.910156 C 26.261719 26.753906 26.589844 26.535156 26.878906 26.246094 C 27.164062 25.960938 27.382812 25.632812 27.539062 25.257812 C 27.691406 24.886719 27.769531 24.496094 27.769531 24.09375 L 27.769531 20.027344 C 27.769531 19.894531 27.742188 19.765625 27.691406 19.640625 C 27.640625 19.515625 27.566406 19.40625 27.472656 19.3125 C 27.375 19.214844 27.265625 19.140625 27.140625 19.089844 C 27.019531 19.039062 26.886719 19.011719 26.753906 19.011719 Z M 26.753906 19.011719 " fill-opacity="1" fill-rule="nonzero"/></g></svg>