<svg xmlns="http://www.w3.org/2000/svg" xmlns:xlink="http://www.w3.org/1999/xlink" width="40" zoomAndPan="magnify" viewBox="0 0 30 30.000001" height="40" preserveAspectRatio="xMidYMid meet" version="1.0"><defs><clipPath id="c4d3d55fa6"><path d="M 7 2.285156 L 27.449219 2.285156 L 27.449219 22 L 7 22 Z M 7 2.285156 " clip-rule="nonzero"/></clipPath><clipPath id="c05ba928a6"><path d="M 2.769531 2.285156 L 27.449219 2.285156 L 27.449219 26.964844 L 2.769531 26.964844 Z M 2.769531 2.285156 " clip-rule="nonzero"/></clipPath></defs><g clip-path="url(#c4d3d55fa6)"><path fill="#38b6ff" d="M 21.777344 3.234375 L 9.355469 15.65625 C 8.875 16.132812 8.507812 16.679688 8.25 17.304688 C 7.992188 17.929688 7.863281 18.582031 7.863281 19.257812 L 7.863281 20.625 C 7.863281 20.757812 7.890625 20.890625 7.941406 21.015625 C 7.992188 21.140625 8.066406 21.25 8.164062 21.34375 C 8.257812 21.441406 8.367188 21.515625 8.492188 21.566406 C 8.617188 21.617188 8.746094 21.644531 8.882812 21.644531 L 10.25 21.644531 C 10.925781 21.644531 11.578125 21.515625 12.199219 21.257812 C 12.824219 21 13.375 20.628906 13.851562 20.152344 L 26.273438 7.730469 C 26.570312 7.433594 26.800781 7.089844 26.960938 6.699219 C 27.121094 6.308594 27.203125 5.902344 27.203125 5.480469 C 27.203125 5.0625 27.121094 4.65625 26.960938 4.265625 C 26.800781 3.875 26.570312 3.53125 26.273438 3.234375 C 25.96875 2.945312 25.625 2.722656 25.234375 2.566406 C 24.847656 2.410156 24.445312 2.332031 24.023438 2.332031 C 23.605469 2.332031 23.203125 2.410156 22.8125 2.566406 C 22.425781 2.722656 22.078125 2.945312 21.777344 3.234375 Z M 24.832031 6.289062 L 12.410156 18.710938 C 11.8125 19.304688 11.09375 19.601562 10.25 19.605469 L 9.902344 19.605469 L 9.902344 19.257812 C 9.902344 18.414062 10.203125 17.691406 10.796875 17.09375 L 23.21875 4.675781 C 23.324219 4.570312 23.449219 4.492188 23.589844 4.433594 C 23.730469 4.378906 23.875 4.351562 24.023438 4.351562 C 24.175781 4.351562 24.320312 4.378906 24.460938 4.433594 C 24.601562 4.492188 24.722656 4.570312 24.832031 4.675781 C 24.941406 4.78125 25.023438 4.90625 25.078125 5.046875 C 25.136719 5.183594 25.167969 5.332031 25.167969 5.480469 C 25.167969 5.632812 25.136719 5.78125 25.078125 5.917969 C 25.023438 6.058594 24.941406 6.183594 24.832031 6.289062 Z M 24.832031 6.289062 " fill-opacity="1" fill-rule="nonzero"/></g><g clip-path="url(#c05ba928a6)"><path fill="#38b6ff" d="M 26.203125 11.433594 C 26.066406 11.433594 25.9375 11.460938 25.8125 11.511719 C 25.6875 11.5625 25.578125 11.636719 25.480469 11.730469 C 25.386719 11.828125 25.3125 11.9375 25.261719 12.0625 C 25.210938 12.1875 25.183594 12.316406 25.183594 12.453125 L 25.183594 17.566406 L 21.109375 17.566406 C 20.703125 17.566406 20.3125 17.644531 19.9375 17.800781 C 19.5625 17.957031 19.234375 18.175781 18.945312 18.464844 C 18.660156 18.75 18.441406 19.082031 18.285156 19.453125 C 18.128906 19.828125 18.050781 20.21875 18.050781 20.625 L 18.050781 24.699219 L 7.863281 24.699219 C 7.457031 24.699219 7.070312 24.621094 6.695312 24.464844 C 6.320312 24.3125 5.988281 24.089844 5.703125 23.804688 C 5.417969 23.519531 5.195312 23.1875 5.039062 22.8125 C 4.886719 22.4375 4.808594 22.046875 4.808594 21.644531 L 4.808594 7.378906 C 4.808594 6.976562 4.886719 6.585938 5.039062 6.210938 C 5.195312 5.835938 5.417969 5.503906 5.703125 5.21875 C 5.988281 4.933594 6.320312 4.710938 6.695312 4.554688 C 7.070312 4.402344 7.457031 4.324219 7.863281 4.324219 L 17.074219 4.324219 C 17.210938 4.324219 17.339844 4.296875 17.464844 4.246094 C 17.589844 4.195312 17.699219 4.121094 17.796875 4.027344 C 17.890625 3.929688 17.964844 3.820312 18.015625 3.695312 C 18.070312 3.570312 18.09375 3.441406 18.09375 3.304688 C 18.09375 3.171875 18.070312 3.039062 18.015625 2.914062 C 17.964844 2.789062 17.890625 2.679688 17.796875 2.585938 C 17.699219 2.488281 17.589844 2.414062 17.464844 2.363281 C 17.339844 2.3125 17.210938 2.285156 17.074219 2.285156 L 7.863281 2.285156 C 7.53125 2.285156 7.199219 2.320312 6.871094 2.386719 C 6.542969 2.449219 6.222656 2.546875 5.914062 2.675781 C 5.605469 2.804688 5.3125 2.960938 5.035156 3.148438 C 4.757812 3.332031 4.5 3.542969 4.265625 3.78125 C 4.027344 4.015625 3.816406 4.273438 3.628906 4.550781 C 3.445312 4.828125 3.289062 5.121094 3.160156 5.433594 C 3.03125 5.742188 2.933594 6.058594 2.867188 6.386719 C 2.804688 6.714844 2.769531 7.046875 2.769531 7.378906 L 2.769531 21.644531 C 2.769531 21.976562 2.804688 22.308594 2.867188 22.636719 C 2.933594 22.964844 3.03125 23.28125 3.160156 23.589844 C 3.289062 23.898438 3.445312 24.195312 3.628906 24.472656 C 3.816406 24.75 4.027344 25.007812 4.265625 25.242188 C 4.5 25.480469 4.757812 25.691406 5.035156 25.875 C 5.3125 26.0625 5.605469 26.21875 5.914062 26.347656 C 6.222656 26.476562 6.542969 26.574219 6.871094 26.636719 C 7.199219 26.703125 7.53125 26.738281 7.863281 26.738281 L 19.421875 26.738281 C 20.097656 26.738281 20.746094 26.609375 21.371094 26.351562 C 21.996094 26.09375 22.546875 25.722656 23.023438 25.246094 L 25.726562 22.539062 C 26.207031 22.0625 26.578125 21.511719 26.835938 20.886719 C 27.09375 20.261719 27.222656 19.613281 27.222656 18.9375 L 27.222656 12.453125 C 27.222656 12.316406 27.195312 12.1875 27.144531 12.0625 C 27.089844 11.9375 27.019531 11.828125 26.921875 11.730469 C 26.828125 11.636719 26.714844 11.5625 26.59375 11.511719 C 26.46875 11.460938 26.335938 11.433594 26.203125 11.433594 Z M 21.582031 23.804688 C 21.164062 24.222656 20.667969 24.492188 20.089844 24.621094 L 20.089844 20.625 C 20.089844 20.488281 20.113281 20.359375 20.167969 20.234375 C 20.21875 20.109375 20.292969 20 20.386719 19.902344 C 20.484375 19.808594 20.59375 19.734375 20.71875 19.683594 C 20.84375 19.632812 20.972656 19.605469 21.109375 19.605469 L 25.105469 19.605469 C 24.976562 20.179688 24.707031 20.679688 24.292969 21.097656 Z M 21.582031 23.804688 " fill-opacity="1" fill-rule="nonzero"/></g></svg>