<svg xmlns="http://www.w3.org/2000/svg" xmlns:xlink="http://www.w3.org/1999/xlink" width="500" zoomAndPan="magnify" viewBox="0 0 375 374.999991" height="500" preserveAspectRatio="xMidYMid meet" version="1.0"><defs><clipPath id="f8aa1c1ea4"><path d="M 84.175781 83 L 227 83 L 227 290 L 84.175781 290 Z M 84.175781 83 " clip-rule="nonzero"/></clipPath></defs><g clip-path="url(#f8aa1c1ea4)"><path fill="#ffffff" d="M 226.4375 150.019531 L 212.320312 150.019531 L 212.320312 98.761719 L 120.589844 98.761719 C 132.460938 105.683594 141.957031 111.726562 151.925781 116.839844 C 158.265625 120.089844 160.363281 124.472656 160.308594 131.46875 C 160.015625 163.152344 160.183594 194.871094 160.183594 226.558594 L 160.183594 238.9375 L 211.898438 238.9375 L 211.898438 199.382812 L 226.382812 199.382812 C 226.382812 215.324219 226.617188 230.921875 226.289062 246.515625 C 226.144531 252.78125 221.433594 254.277344 215.972656 254.242188 C 201.105469 254.152344 186.242188 254.207031 171.339844 254.207031 L 160.128906 254.207031 C 160.128906 263.082031 160.382812 271.28125 160.070312 279.441406 C 159.726562 288.902344 155.105469 291.585938 146.960938 286.96875 C 127.894531 276.191406 108.828125 265.398438 90.128906 254.003906 C 87.207031 252.234375 84.503906 247.355469 84.46875 243.886719 C 84.121094 193.722656 84.304688 143.558594 84.175781 93.390625 C 84.175781 86.195312 87.390625 83.492188 94.128906 83.492188 C 134.796875 83.566406 175.46875 83.566406 216.136719 83.53125 C 221.578125 83.53125 226.269531 84.9375 226.34375 91.308594 C 226.601562 110.628906 226.4375 129.933594 226.4375 150.019531 " fill-opacity="1" fill-rule="nonzero"/></g><path fill="#ffffff" d="M 241.355469 184.882812 C 228.957031 184.882812 217.796875 184.976562 206.640625 184.847656 C 197.328125 184.753906 191.992188 180.828125 192.707031 174.292969 C 193.582031 166.128906 199.316406 164.175781 206.4375 164.246094 C 217.617188 164.355469 228.792969 164.265625 241.335938 164.265625 C 241.335938 158.675781 241.171875 153.582031 241.375 148.503906 C 241.683594 141.054688 244.496094 139.210938 250.210938 143.226562 C 262.628906 152.011719 274.773438 161.179688 286.972656 170.253906 C 290.808594 173.105469 290.898438 176.246094 286.972656 179.148438 C 274.484375 188.351562 262.046875 197.648438 249.410156 206.613281 C 244.1875 210.320312 241.574219 207.566406 241.390625 201.867188 C 241.226562 196.679688 241.335938 191.476562 241.335938 184.882812 L 241.355469 184.882812 " fill-opacity="1" fill-rule="nonzero"/></svg>