<svg xmlns="http://www.w3.org/2000/svg" xmlns:xlink="http://www.w3.org/1999/xlink" width="40" zoomAndPan="magnify" viewBox="0 0 30 30.000001" height="40" preserveAspectRatio="xMidYMid meet" version="1.0"><defs><clipPath id="448ce7a378"><path d="M 8 3.917969 L 27.339844 3.917969 L 27.339844 23 L 8 23 Z M 8 3.917969 " clip-rule="nonzero"/></clipPath><clipPath id="caea9f2df5"><path d="M 3.386719 3.917969 L 27.339844 3.917969 L 27.339844 27.871094 L 3.386719 27.871094 Z M 3.386719 3.917969 " clip-rule="nonzero"/></clipPath></defs><g clip-path="url(#448ce7a378)"><path fill="#ffffff" d="M 21.777344 4.835938 L 9.757812 16.855469 C 9.296875 17.316406 8.9375 17.847656 8.6875 18.453125 C 8.4375 19.054688 8.3125 19.683594 8.316406 20.339844 L 8.316406 21.660156 C 8.316406 21.792969 8.339844 21.917969 8.390625 22.039062 C 8.441406 22.160156 8.511719 22.265625 8.605469 22.359375 C 8.695312 22.453125 8.804688 22.523438 8.925781 22.574219 C 9.042969 22.621094 9.171875 22.648438 9.300781 22.648438 L 10.625 22.648438 C 11.277344 22.648438 11.90625 22.523438 12.511719 22.273438 C 13.117188 22.023438 13.648438 21.667969 14.109375 21.203125 L 26.128906 9.1875 C 26.414062 8.898438 26.636719 8.566406 26.792969 8.1875 C 26.949219 7.8125 27.027344 7.417969 27.027344 7.011719 C 27.027344 6.605469 26.949219 6.210938 26.792969 5.835938 C 26.636719 5.457031 26.414062 5.125 26.128906 4.835938 C 25.835938 4.554688 25.5 4.339844 25.125 4.191406 C 24.746094 4.039062 24.355469 3.964844 23.953125 3.964844 C 23.546875 3.964844 23.15625 4.039062 22.78125 4.191406 C 22.402344 4.339844 22.070312 4.554688 21.777344 4.835938 Z M 24.734375 7.792969 L 12.714844 19.8125 C 12.136719 20.386719 11.441406 20.675781 10.625 20.675781 L 10.285156 20.675781 L 10.285156 20.339844 C 10.289062 19.523438 10.578125 18.824219 11.152344 18.246094 L 23.171875 6.230469 C 23.273438 6.128906 23.394531 6.050781 23.53125 5.996094 C 23.664062 5.945312 23.804688 5.917969 23.953125 5.917969 C 24.097656 5.917969 24.238281 5.945312 24.371094 5.996094 C 24.507812 6.050781 24.628906 6.128906 24.734375 6.230469 C 24.835938 6.332031 24.917969 6.453125 24.972656 6.589844 C 25.027344 6.722656 25.054688 6.863281 25.054688 7.011719 C 25.054688 7.15625 25.027344 7.300781 24.972656 7.433594 C 24.917969 7.570312 24.835938 7.6875 24.734375 7.792969 Z M 24.734375 7.792969 " fill-opacity="1" fill-rule="nonzero"/></g><g clip-path="url(#caea9f2df5)"><path fill="#ffffff" d="M 26.058594 12.769531 C 25.925781 12.769531 25.800781 12.796875 25.679688 12.84375 C 25.558594 12.894531 25.453125 12.964844 25.359375 13.058594 C 25.269531 13.152344 25.199219 13.257812 25.148438 13.378906 C 25.097656 13.5 25.074219 13.625 25.074219 13.753906 L 25.074219 18.703125 L 21.128906 18.703125 C 20.738281 18.703125 20.359375 18.78125 19.996094 18.929688 C 19.636719 19.078125 19.316406 19.292969 19.039062 19.570312 C 18.761719 19.847656 18.546875 20.167969 18.398438 20.53125 C 18.246094 20.890625 18.171875 21.269531 18.171875 21.660156 L 18.171875 25.605469 L 8.316406 25.605469 C 7.921875 25.605469 7.546875 25.53125 7.183594 25.378906 C 6.820312 25.230469 6.5 25.015625 6.222656 24.738281 C 5.949219 24.460938 5.734375 24.140625 5.582031 23.777344 C 5.433594 23.417969 5.359375 23.039062 5.359375 22.648438 L 5.359375 8.847656 C 5.359375 8.457031 5.433594 8.078125 5.582031 7.714844 C 5.734375 7.355469 5.949219 7.035156 6.222656 6.757812 C 6.5 6.480469 6.820312 6.265625 7.183594 6.117188 C 7.546875 5.964844 7.921875 5.890625 8.316406 5.890625 L 17.226562 5.890625 C 17.359375 5.890625 17.484375 5.867188 17.605469 5.816406 C 17.726562 5.765625 17.832031 5.695312 17.925781 5.601562 C 18.019531 5.507812 18.089844 5.402344 18.140625 5.28125 C 18.1875 5.160156 18.214844 5.035156 18.214844 4.90625 C 18.214844 4.773438 18.1875 4.648438 18.140625 4.527344 C 18.089844 4.40625 18.019531 4.300781 17.925781 4.207031 C 17.832031 4.117188 17.726562 4.042969 17.605469 3.996094 C 17.484375 3.945312 17.359375 3.917969 17.226562 3.917969 L 8.316406 3.917969 C 7.992188 3.917969 7.671875 3.953125 7.355469 4.015625 C 7.039062 4.078125 6.730469 4.171875 6.429688 4.296875 C 6.132812 4.421875 5.847656 4.570312 5.578125 4.75 C 5.308594 4.929688 5.0625 5.136719 4.832031 5.363281 C 4.605469 5.59375 4.398438 5.84375 4.21875 6.109375 C 4.039062 6.378906 3.886719 6.664062 3.765625 6.960938 C 3.640625 7.261719 3.546875 7.570312 3.484375 7.886719 C 3.417969 8.203125 3.386719 8.523438 3.386719 8.847656 L 3.386719 22.648438 C 3.386719 22.972656 3.417969 23.292969 3.484375 23.609375 C 3.546875 23.925781 3.640625 24.234375 3.765625 24.53125 C 3.886719 24.832031 4.039062 25.117188 4.21875 25.382812 C 4.398438 25.652344 4.605469 25.902344 4.832031 26.128906 C 5.0625 26.359375 5.308594 26.5625 5.578125 26.742188 C 5.847656 26.921875 6.132812 27.074219 6.429688 27.199219 C 6.730469 27.324219 7.039062 27.417969 7.355469 27.480469 C 7.671875 27.542969 7.992188 27.574219 8.316406 27.574219 L 19.496094 27.574219 C 20.148438 27.578125 20.78125 27.453125 21.382812 27.203125 C 21.988281 26.953125 22.519531 26.597656 22.980469 26.132812 L 25.601562 23.511719 C 26.0625 23.050781 26.421875 22.519531 26.671875 21.914062 C 26.921875 21.3125 27.046875 20.683594 27.042969 20.027344 L 27.042969 13.753906 C 27.042969 13.625 27.019531 13.5 26.96875 13.378906 C 26.917969 13.257812 26.847656 13.152344 26.753906 13.058594 C 26.664062 12.964844 26.554688 12.894531 26.433594 12.84375 C 26.316406 12.796875 26.1875 12.769531 26.058594 12.769531 Z M 21.589844 24.738281 C 21.183594 25.144531 20.703125 25.40625 20.144531 25.527344 L 20.144531 21.660156 C 20.144531 21.53125 20.167969 21.40625 20.21875 21.285156 C 20.269531 21.164062 20.339844 21.058594 20.433594 20.964844 C 20.523438 20.871094 20.632812 20.800781 20.753906 20.75 C 20.875 20.703125 21 20.675781 21.128906 20.675781 L 25 20.675781 C 24.875 21.234375 24.609375 21.714844 24.210938 22.121094 Z M 21.589844 24.738281 " fill-opacity="1" fill-rule="nonzero"/></g></svg>