<svg xmlns="http://www.w3.org/2000/svg" xmlns:xlink="http://www.w3.org/1999/xlink" width="40" zoomAndPan="magnify" viewBox="0 0 30 30.000001" height="40" preserveAspectRatio="xMidYMid meet" version="1.0"><defs><clipPath id="2b09480c4c"><path d="M 4.222656 4.574219 L 25.996094 4.574219 L 25.996094 26.347656 L 4.222656 26.347656 Z M 4.222656 4.574219 " clip-rule="nonzero"/></clipPath></defs><g clip-path="url(#2b09480c4c)"><path fill="#38b6ff" d="M 9.609375 6.816406 C 9.609375 5.578125 10.613281 4.574219 11.851562 4.574219 C 13.09375 4.574219 14.097656 5.578125 14.097656 6.816406 C 14.097656 8.058594 13.09375 9.0625 11.851562 9.0625 C 10.613281 9.0625 9.609375 8.058594 9.609375 6.816406 Z M 9.355469 12.832031 C 10.707031 11.445312 13 11.445312 14.351562 12.832031 C 14.527344 13.011719 14.761719 13.101562 14.996094 13.101562 C 15.222656 13.101562 15.449219 13.015625 15.621094 12.847656 C 15.976562 12.5 15.984375 11.933594 15.636719 11.578125 C 14.621094 10.535156 13.277344 9.960938 11.851562 9.960938 C 10.429688 9.960938 9.085938 10.535156 8.066406 11.578125 C 7.722656 11.933594 7.730469 12.5 8.085938 12.847656 C 8.4375 13.191406 9.007812 13.1875 9.355469 12.832031 Z M 25.082031 16.257812 L 18.972656 23.113281 C 17.273438 25.023438 14.828125 26.121094 12.269531 26.121094 L 7.8125 26.121094 C 5.832031 26.121094 4.222656 24.507812 4.222656 22.527344 L 4.222656 18.039062 C 4.222656 16.058594 5.832031 14.449219 7.8125 14.449219 L 15.765625 14.449219 C 16.789062 14.449219 17.683594 14.996094 18.179688 15.8125 L 21.066406 12.640625 C 21.554688 12.105469 22.21875 11.792969 22.9375 11.757812 C 23.652344 11.730469 24.351562 11.972656 24.886719 12.460938 C 25.976562 13.453125 26.066406 15.15625 25.082031 16.257812 Z M 23.679688 13.785156 C 23.5 13.625 23.265625 13.535156 23.023438 13.550781 C 22.78125 13.5625 22.558594 13.667969 22.394531 13.847656 L 18.421875 18.214844 C 18.078125 19.175781 17.21875 19.910156 16.164062 20.0625 L 11.53125 20.722656 C 11.035156 20.789062 10.585938 20.453125 10.515625 19.960938 C 10.445312 19.46875 10.785156 19.015625 11.277344 18.945312 L 15.910156 18.28125 C 16.414062 18.210938 16.792969 17.777344 16.792969 17.269531 C 16.792969 16.703125 16.332031 16.242188 15.765625 16.242188 L 7.8125 16.242188 C 6.824219 16.242188 6.015625 17.046875 6.015625 18.039062 L 6.015625 22.527344 C 6.015625 23.515625 6.824219 24.324219 7.8125 24.324219 L 12.269531 24.324219 C 14.316406 24.324219 16.269531 23.445312 17.632812 21.917969 L 23.742188 15.0625 C 24.074219 14.691406 24.042969 14.117188 23.679688 13.785156 Z M 23.679688 13.785156 " fill-opacity="1" fill-rule="nonzero"/></g></svg>