<svg xmlns="http://www.w3.org/2000/svg" xmlns:xlink="http://www.w3.org/1999/xlink" width="40" zoomAndPan="magnify" viewBox="0 0 30 30.000001" height="40" preserveAspectRatio="xMidYMid meet" version="1.0"><defs><clipPath id="7f0bff9abb"><path d="M 0.484375 0 L 29.515625 0 L 29.515625 29.03125 L 0.484375 29.03125 Z M 0.484375 0 " clip-rule="nonzero"/></clipPath><clipPath id="26119e0236"><path d="M 7 3.691406 L 26.878906 3.691406 L 26.878906 22 L 7 22 Z M 7 3.691406 " clip-rule="nonzero"/></clipPath><clipPath id="e2f52c604f"><path d="M 4.378906 4 L 13 4 L 13 26.191406 L 4.378906 26.191406 Z M 4.378906 4 " clip-rule="nonzero"/></clipPath></defs><g clip-path="url(#7f0bff9abb)"><path fill="#ffffff" d="M 0.484375 0 L 29.515625 0 L 29.515625 29.03125 L 0.484375 29.03125 Z M 0.484375 0 " fill-opacity="1" fill-rule="nonzero"/><path fill="#ffffff" d="M 0.484375 0 L 29.515625 0 L 29.515625 29.03125 L 0.484375 29.03125 Z M 0.484375 0 " fill-opacity="1" fill-rule="nonzero"/></g><g clip-path="url(#26119e0236)"><path fill="#1b9f63" d="M 26.347656 13.097656 L 22.859375 9.609375 C 22.550781 9.300781 22.050781 9.300781 21.742188 9.609375 C 21.433594 9.917969 21.433594 10.417969 21.742188 10.726562 L 23.878906 12.867188 L 17.882812 12.867188 L 17.882812 4.804688 C 17.882812 4.507812 17.765625 4.230469 17.558594 4.023438 C 17.351562 3.816406 17.066406 3.699219 16.773438 3.699219 L 7.050781 3.699219 L 12.648438 6.417969 C 13.738281 6.949219 14.445312 8.078125 14.445312 9.289062 L 14.445312 21.863281 L 16.773438 21.863281 C 17.066406 21.863281 17.351562 21.746094 17.558594 21.539062 C 17.765625 21.328125 17.882812 21.050781 17.882812 20.753906 L 17.882812 16.027344 L 16.652344 16.027344 C 16.214844 16.027344 15.863281 15.671875 15.863281 15.238281 C 15.863281 14.800781 16.214844 14.445312 16.652344 14.445312 L 23.878906 14.445312 L 21.742188 16.585938 C 21.433594 16.894531 21.433594 17.394531 21.742188 17.703125 C 21.894531 17.855469 22.097656 17.933594 22.300781 17.933594 C 22.503906 17.933594 22.703125 17.855469 22.859375 17.703125 L 26.347656 14.214844 C 26.496094 14.066406 26.578125 13.867188 26.578125 13.65625 C 26.578125 13.449219 26.496094 13.246094 26.347656 13.097656 Z M 26.347656 13.097656 " fill-opacity="1" fill-rule="nonzero"/></g><g clip-path="url(#e2f52c604f)"><path fill="#1b9f63" d="M 11.957031 7.839844 L 4.566406 4.246094 C 4.46875 4.410156 4.40625 4.601562 4.40625 4.804688 L 4.40625 20.945312 C 4.40625 21.683594 4.835938 22.367188 5.5 22.691406 L 12.492188 26.089844 C 12.574219 26.128906 12.667969 26.125 12.742188 26.078125 C 12.816406 26.03125 12.863281 25.945312 12.863281 25.855469 L 12.863281 9.289062 C 12.863281 8.675781 12.507812 8.109375 11.957031 7.839844 Z M 11.449219 17.144531 C 11.449219 17.582031 11.097656 17.933594 10.660156 17.933594 C 10.222656 17.933594 9.871094 17.582031 9.871094 17.144531 L 9.871094 14.449219 C 9.871094 14.011719 10.222656 13.660156 10.660156 13.660156 C 11.097656 13.660156 11.449219 14.011719 11.449219 14.449219 Z M 11.449219 17.144531 " fill-opacity="1" fill-rule="nonzero"/></g></svg>