<svg xmlns="http://www.w3.org/2000/svg" xmlns:xlink="http://www.w3.org/1999/xlink" width="40" zoomAndPan="magnify" viewBox="0 0 30 30.000001" height="40" preserveAspectRatio="xMidYMid meet" version="1.0"><defs><clipPath id="41d0220ec8"><path d="M 5 2.902344 L 26.613281 2.902344 L 26.613281 26.128906 L 5 26.128906 Z M 5 2.902344 " clip-rule="nonzero"/></clipPath></defs><g clip-path="url(#41d0220ec8)"><path fill="#ffffff" d="M 18.871094 8.710938 C 19 8.710938 19.121094 8.734375 19.242188 8.785156 C 19.359375 8.832031 19.464844 8.902344 19.554688 8.992188 C 19.644531 9.082031 19.714844 9.1875 19.765625 9.308594 C 19.8125 9.425781 19.839844 9.550781 19.839844 9.675781 C 19.839844 9.804688 19.8125 9.929688 19.765625 10.046875 C 19.714844 10.167969 19.644531 10.269531 19.554688 10.363281 C 19.464844 10.453125 19.359375 10.523438 19.242188 10.570312 C 19.121094 10.621094 19 10.644531 18.871094 10.644531 L 11.128906 10.644531 C 11 10.644531 10.878906 10.621094 10.757812 10.570312 C 10.640625 10.523438 10.535156 10.453125 10.445312 10.363281 C 10.355469 10.269531 10.285156 10.167969 10.234375 10.046875 C 10.1875 9.929688 10.160156 9.804688 10.160156 9.675781 C 10.160156 9.550781 10.1875 9.425781 10.234375 9.308594 C 10.285156 9.1875 10.355469 9.082031 10.445312 8.992188 C 10.535156 8.902344 10.640625 8.832031 10.757812 8.785156 C 10.878906 8.734375 11 8.710938 11.128906 8.710938 Z M 26.328125 25.84375 C 26.238281 25.9375 26.132812 26.007812 26.015625 26.054688 C 25.898438 26.105469 25.773438 26.128906 25.644531 26.128906 C 25.515625 26.128906 25.394531 26.105469 25.273438 26.054688 C 25.15625 26.007812 25.050781 25.9375 24.960938 25.84375 L 22.632812 23.515625 C 21.925781 23.964844 21.15625 24.191406 20.324219 24.195312 C 20.035156 24.195312 19.753906 24.164062 19.472656 24.109375 C 19.191406 24.054688 18.921875 23.972656 18.65625 23.863281 C 18.390625 23.753906 18.140625 23.617188 17.902344 23.460938 C 17.664062 23.300781 17.445312 23.121094 17.242188 22.917969 C 17.042969 22.714844 16.859375 22.496094 16.703125 22.257812 C 16.542969 22.019531 16.410156 21.769531 16.300781 21.503906 C 16.191406 21.242188 16.105469 20.96875 16.050781 20.6875 C 15.996094 20.40625 15.96875 20.125 15.96875 19.839844 C 15.96875 19.554688 15.996094 19.269531 16.050781 18.988281 C 16.105469 18.707031 16.191406 18.4375 16.300781 18.171875 C 16.410156 17.90625 16.542969 17.65625 16.703125 17.417969 C 16.859375 17.179688 17.042969 16.960938 17.242188 16.757812 C 17.445312 16.558594 17.664062 16.375 17.902344 16.21875 C 18.140625 16.058594 18.390625 15.925781 18.65625 15.816406 C 18.921875 15.707031 19.191406 15.625 19.472656 15.566406 C 19.753906 15.511719 20.035156 15.484375 20.324219 15.484375 C 20.609375 15.484375 20.890625 15.511719 21.171875 15.566406 C 21.453125 15.625 21.726562 15.707031 21.988281 15.816406 C 22.253906 15.925781 22.503906 16.058594 22.742188 16.21875 C 22.980469 16.375 23.199219 16.558594 23.402344 16.757812 C 23.605469 16.960938 23.785156 17.179688 23.945312 17.417969 C 24.101562 17.65625 24.238281 17.90625 24.347656 18.171875 C 24.457031 18.4375 24.539062 18.707031 24.59375 18.988281 C 24.648438 19.269531 24.675781 19.554688 24.675781 19.839844 C 24.675781 20.675781 24.449219 21.445312 24 22.148438 L 26.328125 24.476562 C 26.421875 24.566406 26.488281 24.671875 26.539062 24.792969 C 26.589844 24.910156 26.613281 25.03125 26.613281 25.160156 C 26.613281 25.289062 26.589844 25.414062 26.539062 25.53125 C 26.488281 25.648438 26.421875 25.753906 26.328125 25.84375 Z M 20.324219 22.257812 C 20.644531 22.257812 20.953125 22.195312 21.25 22.074219 C 21.542969 21.949219 21.804688 21.777344 22.035156 21.550781 C 22.261719 21.324219 22.433594 21.0625 22.558594 20.765625 C 22.679688 20.46875 22.742188 20.160156 22.742188 19.839844 C 22.742188 19.519531 22.679688 19.210938 22.558594 18.914062 C 22.433594 18.617188 22.261719 18.355469 22.035156 18.128906 C 21.804688 17.902344 21.542969 17.726562 21.25 17.605469 C 20.953125 17.480469 20.644531 17.417969 20.324219 17.417969 C 20 17.417969 19.691406 17.480469 19.398438 17.605469 C 19.101562 17.726562 18.839844 17.902344 18.613281 18.128906 C 18.386719 18.355469 18.210938 18.617188 18.085938 18.914062 C 17.964844 19.210938 17.902344 19.519531 17.902344 19.839844 C 17.902344 20.160156 17.964844 20.46875 18.085938 20.765625 C 18.210938 21.0625 18.386719 21.324219 18.613281 21.550781 C 18.839844 21.777344 19.101562 21.949219 19.398438 22.074219 C 19.691406 22.195312 20 22.257812 20.324219 22.257812 Z M 15.96875 24.195312 L 10.160156 24.195312 C 9.777344 24.195312 9.40625 24.121094 9.050781 23.972656 C 8.695312 23.824219 8.378906 23.617188 8.109375 23.34375 C 7.835938 23.070312 7.625 22.757812 7.480469 22.402344 C 7.332031 22.046875 7.257812 21.675781 7.257812 21.289062 L 7.257812 7.742188 C 7.257812 7.355469 7.332031 6.988281 7.480469 6.632812 C 7.625 6.273438 7.835938 5.960938 8.109375 5.6875 C 8.378906 5.417969 8.695312 5.207031 9.050781 5.058594 C 9.40625 4.914062 9.777344 4.839844 10.160156 4.839844 L 21.773438 4.839844 C 21.902344 4.839844 22.027344 4.863281 22.144531 4.914062 C 22.261719 4.960938 22.367188 5.03125 22.457031 5.121094 C 22.550781 5.214844 22.621094 5.316406 22.667969 5.4375 C 22.71875 5.554688 22.742188 5.679688 22.742188 5.804688 L 22.742188 13.546875 C 22.742188 13.675781 22.765625 13.800781 22.816406 13.917969 C 22.863281 14.039062 22.933594 14.140625 23.023438 14.234375 C 23.117188 14.324219 23.222656 14.394531 23.339844 14.441406 C 23.457031 14.492188 23.582031 14.515625 23.710938 14.515625 C 23.839844 14.515625 23.960938 14.492188 24.078125 14.441406 C 24.199219 14.394531 24.304688 14.324219 24.394531 14.234375 C 24.484375 14.140625 24.554688 14.039062 24.605469 13.917969 C 24.652344 13.800781 24.675781 13.675781 24.675781 13.546875 L 24.675781 5.804688 C 24.675781 5.421875 24.605469 5.050781 24.457031 4.695312 C 24.308594 4.339844 24.097656 4.027344 23.828125 3.753906 C 23.554688 3.480469 23.242188 3.273438 22.886719 3.125 C 22.53125 2.976562 22.160156 2.902344 21.773438 2.902344 L 10.160156 2.902344 C 9.84375 2.902344 9.527344 2.933594 9.21875 2.996094 C 8.90625 3.058594 8.605469 3.152344 8.308594 3.273438 C 8.015625 3.394531 7.738281 3.542969 7.472656 3.71875 C 7.210938 3.898438 6.964844 4.097656 6.742188 4.320312 C 6.515625 4.546875 6.316406 4.792969 6.140625 5.054688 C 5.964844 5.320312 5.8125 5.597656 5.691406 5.890625 C 5.570312 6.183594 5.480469 6.488281 5.417969 6.796875 C 5.355469 7.109375 5.324219 7.425781 5.324219 7.742188 L 5.324219 21.289062 C 5.324219 21.609375 5.355469 21.921875 5.417969 22.234375 C 5.480469 22.546875 5.570312 22.847656 5.691406 23.140625 C 5.8125 23.433594 5.964844 23.714844 6.140625 23.976562 C 6.316406 24.242188 6.515625 24.484375 6.742188 24.710938 C 6.964844 24.933594 7.210938 25.136719 7.472656 25.3125 C 7.738281 25.488281 8.015625 25.636719 8.308594 25.757812 C 8.605469 25.882812 8.90625 25.972656 9.21875 26.035156 C 9.527344 26.097656 9.84375 26.128906 10.160156 26.128906 L 15.96875 26.128906 C 16.097656 26.128906 16.21875 26.105469 16.339844 26.054688 C 16.457031 26.007812 16.5625 25.9375 16.652344 25.84375 C 16.742188 25.753906 16.8125 25.648438 16.863281 25.53125 C 16.910156 25.414062 16.933594 25.289062 16.933594 25.160156 C 16.933594 25.03125 16.910156 24.910156 16.863281 24.789062 C 16.8125 24.671875 16.742188 24.566406 16.652344 24.476562 C 16.5625 24.386719 16.457031 24.316406 16.339844 24.265625 C 16.21875 24.21875 16.097656 24.195312 15.96875 24.195312 Z M 15.96875 24.195312 " fill-opacity="1" fill-rule="nonzero"/></g></svg>