<svg xmlns="http://www.w3.org/2000/svg" xmlns:xlink="http://www.w3.org/1999/xlink" width="40" zoomAndPan="magnify" viewBox="0 0 30 30.000001" height="40" preserveAspectRatio="xMidYMid meet" version="1.0"><defs><clipPath id="df180a6fd3"><path d="M 5 2.902344 L 25 2.902344 L 25 26.855469 L 5 26.855469 Z M 5 2.902344 " clip-rule="nonzero"/></clipPath></defs><g clip-path="url(#df180a6fd3)"><path fill="#1b9f63" d="M 21.898438 11.207031 L 21.898438 9.804688 C 21.898438 9.351562 21.851562 8.902344 21.765625 8.457031 C 21.675781 8.011719 21.546875 7.582031 21.371094 7.164062 C 21.199219 6.742188 20.988281 6.347656 20.734375 5.96875 C 20.484375 5.59375 20.195312 5.246094 19.875 4.925781 C 19.554688 4.605469 19.207031 4.316406 18.832031 4.066406 C 18.453125 3.8125 18.058594 3.601562 17.636719 3.429688 C 17.21875 3.253906 16.789062 3.125 16.34375 3.035156 C 15.898438 2.949219 15.449219 2.902344 14.996094 2.902344 C 14.542969 2.902344 14.097656 2.949219 13.652344 3.035156 C 13.207031 3.125 12.777344 3.253906 12.355469 3.429688 C 11.9375 3.601562 11.542969 3.8125 11.164062 4.066406 C 10.789062 4.316406 10.4375 4.605469 10.117188 4.925781 C 9.796875 5.246094 9.511719 5.59375 9.261719 5.96875 C 9.007812 6.347656 8.796875 6.742188 8.625 7.164062 C 8.449219 7.582031 8.320312 8.011719 8.230469 8.457031 C 8.140625 8.902344 8.097656 9.351562 8.097656 9.804688 L 8.097656 11.207031 C 7.660156 11.398438 7.257812 11.648438 6.890625 11.957031 C 6.523438 12.265625 6.210938 12.621094 5.949219 13.023438 C 5.683594 13.421875 5.484375 13.851562 5.347656 14.3125 C 5.210938 14.769531 5.140625 15.238281 5.140625 15.71875 L 5.140625 21.632812 C 5.140625 21.953125 5.171875 22.273438 5.238281 22.59375 C 5.300781 22.910156 5.394531 23.21875 5.515625 23.515625 C 5.640625 23.816406 5.792969 24.097656 5.972656 24.367188 C 6.152344 24.636719 6.355469 24.886719 6.585938 25.113281 C 6.816406 25.34375 7.0625 25.546875 7.332031 25.726562 C 7.601562 25.90625 7.886719 26.058594 8.183594 26.183594 C 8.484375 26.308594 8.789062 26.402344 9.109375 26.464844 C 9.425781 26.527344 9.746094 26.558594 10.070312 26.558594 L 19.925781 26.558594 C 20.25 26.558594 20.570312 26.527344 20.886719 26.464844 C 21.203125 26.402344 21.511719 26.308594 21.8125 26.183594 C 22.109375 26.058594 22.394531 25.90625 22.664062 25.726562 C 22.933594 25.546875 23.179688 25.34375 23.410156 25.113281 C 23.636719 24.886719 23.84375 24.636719 24.023438 24.367188 C 24.203125 24.097656 24.355469 23.816406 24.476562 23.515625 C 24.601562 23.21875 24.695312 22.910156 24.757812 22.59375 C 24.824219 22.273438 24.855469 21.953125 24.855469 21.632812 L 24.855469 15.71875 C 24.855469 15.238281 24.785156 14.769531 24.648438 14.3125 C 24.511719 13.851562 24.308594 13.421875 24.046875 13.023438 C 23.785156 12.621094 23.472656 12.265625 23.105469 11.957031 C 22.738281 11.648438 22.335938 11.398438 21.898438 11.207031 Z M 10.070312 9.804688 C 10.070312 9.480469 10.101562 9.160156 10.164062 8.839844 C 10.226562 8.523438 10.320312 8.214844 10.445312 7.917969 C 10.566406 7.617188 10.71875 7.335938 10.898438 7.066406 C 11.078125 6.796875 11.285156 6.546875 11.511719 6.316406 C 11.742188 6.089844 11.992188 5.886719 12.257812 5.707031 C 12.527344 5.527344 12.8125 5.375 13.113281 5.25 C 13.410156 5.125 13.71875 5.03125 14.035156 4.96875 C 14.355469 4.90625 14.675781 4.875 14.996094 4.875 C 15.320312 4.875 15.640625 4.90625 15.960938 4.96875 C 16.277344 5.03125 16.585938 5.125 16.882812 5.25 C 17.183594 5.375 17.464844 5.527344 17.734375 5.707031 C 18.003906 5.886719 18.253906 6.089844 18.484375 6.316406 C 18.710938 6.546875 18.914062 6.796875 19.09375 7.066406 C 19.277344 7.335938 19.425781 7.617188 19.550781 7.917969 C 19.675781 8.214844 19.769531 8.523438 19.832031 8.839844 C 19.894531 9.160156 19.925781 9.480469 19.925781 9.804688 L 19.925781 10.789062 L 10.070312 10.789062 Z M 22.882812 21.632812 C 22.882812 22.023438 22.808594 22.402344 22.660156 22.761719 C 22.507812 23.125 22.292969 23.445312 22.015625 23.722656 C 21.738281 24 21.421875 24.214844 21.058594 24.363281 C 20.695312 24.511719 20.316406 24.589844 19.925781 24.589844 L 10.070312 24.589844 C 9.675781 24.589844 9.300781 24.511719 8.9375 24.363281 C 8.574219 24.214844 8.253906 24 7.976562 23.722656 C 7.699219 23.445312 7.488281 23.125 7.335938 22.761719 C 7.1875 22.402344 7.113281 22.023438 7.113281 21.632812 L 7.113281 15.71875 C 7.113281 15.324219 7.1875 14.949219 7.335938 14.585938 C 7.488281 14.222656 7.699219 13.902344 7.976562 13.625 C 8.253906 13.347656 8.574219 13.136719 8.9375 12.984375 C 9.300781 12.835938 9.675781 12.761719 10.070312 12.761719 L 19.925781 12.761719 C 20.316406 12.761719 20.695312 12.835938 21.058594 12.984375 C 21.421875 13.136719 21.738281 13.347656 22.015625 13.625 C 22.292969 13.902344 22.507812 14.222656 22.660156 14.585938 C 22.808594 14.949219 22.882812 15.324219 22.882812 15.71875 Z M 22.882812 21.632812 " fill-opacity="1" fill-rule="nonzero"/></g><path fill="#1b9f63" d="M 14.996094 16.703125 C 14.867188 16.703125 14.742188 16.726562 14.621094 16.777344 C 14.5 16.828125 14.394531 16.898438 14.300781 16.992188 C 14.207031 17.085938 14.136719 17.191406 14.085938 17.3125 C 14.035156 17.433594 14.011719 17.558594 14.011719 17.6875 L 14.011719 19.660156 C 14.011719 19.789062 14.035156 19.917969 14.085938 20.039062 C 14.136719 20.15625 14.207031 20.265625 14.300781 20.355469 C 14.394531 20.449219 14.5 20.519531 14.621094 20.570312 C 14.742188 20.621094 14.867188 20.644531 14.996094 20.644531 C 15.128906 20.644531 15.253906 20.621094 15.375 20.570312 C 15.496094 20.519531 15.601562 20.449219 15.695312 20.355469 C 15.789062 20.265625 15.859375 20.15625 15.910156 20.039062 C 15.957031 19.917969 15.984375 19.789062 15.984375 19.660156 L 15.984375 17.6875 C 15.984375 17.558594 15.957031 17.433594 15.910156 17.3125 C 15.859375 17.191406 15.789062 17.085938 15.695312 16.992188 C 15.601562 16.898438 15.496094 16.828125 15.375 16.777344 C 15.253906 16.726562 15.128906 16.703125 14.996094 16.703125 Z M 14.996094 16.703125 " fill-opacity="1" fill-rule="nonzero"/></svg>