<svg xmlns="http://www.w3.org/2000/svg" xmlns:xlink="http://www.w3.org/1999/xlink" width="40" zoomAndPan="magnify" viewBox="0 0 30 30.000001" height="40" preserveAspectRatio="xMidYMid meet" version="1.0"><defs><clipPath id="603e23c22e"><path d="M 2.769531 2.285156 L 27.449219 2.285156 L 27.449219 26.964844 L 2.769531 26.964844 Z M 2.769531 2.285156 " clip-rule="nonzero"/></clipPath></defs><g clip-path="url(#603e23c22e)"><path fill="#1b9f63" d="M 14.996094 2.285156 C 14.191406 2.285156 13.398438 2.363281 12.609375 2.519531 C 11.824219 2.679688 11.058594 2.910156 10.316406 3.21875 C 9.574219 3.523438 8.871094 3.902344 8.203125 4.347656 C 7.535156 4.792969 6.917969 5.300781 6.351562 5.867188 C 5.785156 6.433594 5.277344 7.050781 4.832031 7.71875 C 4.382812 8.386719 4.007812 9.089844 3.699219 9.832031 C 3.394531 10.574219 3.160156 11.339844 3.003906 12.125 C 2.847656 12.914062 2.769531 13.707031 2.769531 14.511719 C 2.769531 15.3125 2.847656 16.109375 3.003906 16.898438 C 3.160156 17.683594 3.394531 18.449219 3.699219 19.191406 C 4.007812 19.929688 4.382812 20.636719 4.832031 21.304688 C 5.277344 21.972656 5.785156 22.589844 6.351562 23.15625 C 6.917969 23.722656 7.535156 24.230469 8.203125 24.675781 C 8.871094 25.121094 9.574219 25.5 10.316406 25.804688 C 11.058594 26.113281 11.824219 26.34375 12.609375 26.503906 C 13.398438 26.660156 14.191406 26.738281 14.996094 26.738281 C 15.796875 26.738281 16.59375 26.660156 17.378906 26.503906 C 18.167969 26.34375 18.933594 26.113281 19.675781 25.804688 C 20.414062 25.5 21.121094 25.121094 21.789062 24.675781 C 22.453125 24.230469 23.074219 23.722656 23.640625 23.15625 C 24.207031 22.589844 24.714844 21.972656 25.160156 21.304688 C 25.605469 20.636719 25.984375 19.929688 26.289062 19.191406 C 26.597656 18.449219 26.828125 17.683594 26.984375 16.898438 C 27.140625 16.109375 27.222656 15.3125 27.222656 14.511719 C 27.21875 13.710938 27.140625 12.914062 26.984375 12.128906 C 26.828125 11.339844 26.59375 10.578125 26.285156 9.835938 C 25.980469 9.09375 25.601562 8.390625 25.15625 7.722656 C 24.710938 7.054688 24.203125 6.4375 23.636719 5.871094 C 23.070312 5.304688 22.453125 4.796875 21.785156 4.351562 C 21.117188 3.90625 20.414062 3.527344 19.671875 3.21875 C 18.929688 2.914062 18.167969 2.679688 17.378906 2.523438 C 16.59375 2.367188 15.796875 2.289062 14.996094 2.285156 Z M 14.996094 24.699219 C 14.328125 24.699219 13.664062 24.632812 13.007812 24.503906 C 12.351562 24.375 11.714844 24.179688 11.097656 23.925781 C 10.480469 23.667969 9.890625 23.355469 9.335938 22.980469 C 8.777344 22.609375 8.265625 22.1875 7.792969 21.714844 C 7.320312 21.242188 6.894531 20.726562 6.523438 20.171875 C 6.152344 19.617188 5.839844 19.027344 5.582031 18.410156 C 5.328125 17.792969 5.132812 17.15625 5.003906 16.5 C 4.871094 15.84375 4.808594 15.179688 4.808594 14.511719 C 4.808594 13.84375 4.871094 13.179688 5.003906 12.523438 C 5.132812 11.867188 5.328125 11.230469 5.582031 10.613281 C 5.839844 9.996094 6.152344 9.40625 6.523438 8.851562 C 6.894531 8.296875 7.320312 7.78125 7.792969 7.308594 C 8.265625 6.835938 8.777344 6.414062 9.335938 6.039062 C 9.890625 5.667969 10.480469 5.355469 11.097656 5.097656 C 11.714844 4.84375 12.351562 4.648438 13.007812 4.519531 C 13.664062 4.390625 14.328125 4.324219 14.996094 4.324219 C 15.664062 4.324219 16.328125 4.390625 16.984375 4.519531 C 17.640625 4.648438 18.277344 4.84375 18.894531 5.097656 C 19.511719 5.355469 20.097656 5.667969 20.65625 6.039062 C 21.210938 6.414062 21.726562 6.835938 22.199219 7.308594 C 22.671875 7.78125 23.09375 8.296875 23.464844 8.851562 C 23.839844 9.40625 24.152344 9.996094 24.40625 10.613281 C 24.664062 11.230469 24.855469 11.867188 24.988281 12.523438 C 25.117188 13.179688 25.183594 13.84375 25.183594 14.511719 C 25.183594 15.179688 25.117188 15.84375 24.984375 16.5 C 24.855469 17.152344 24.660156 17.789062 24.40625 18.410156 C 24.148438 19.027344 23.835938 19.613281 23.460938 20.167969 C 23.089844 20.726562 22.667969 21.238281 22.195312 21.710938 C 21.722656 22.183594 21.207031 22.605469 20.652344 22.980469 C 20.097656 23.351562 19.511719 23.664062 18.890625 23.921875 C 18.273438 24.175781 17.636719 24.371094 16.980469 24.5 C 16.328125 24.632812 15.664062 24.699219 14.996094 24.699219 Z M 14.996094 24.699219 " fill-opacity="1" fill-rule="nonzero"/></g><path fill="#1b9f63" d="M 14.996094 7.378906 C 14.859375 7.378906 14.730469 7.40625 14.605469 7.457031 C 14.480469 7.507812 14.371094 7.582031 14.273438 7.679688 C 14.179688 7.773438 14.105469 7.882812 14.054688 8.007812 C 14.003906 8.132812 13.976562 8.265625 13.976562 8.398438 L 13.976562 16.550781 C 13.976562 16.683594 14.003906 16.8125 14.054688 16.9375 C 14.105469 17.0625 14.179688 17.175781 14.273438 17.269531 C 14.371094 17.363281 14.480469 17.4375 14.605469 17.492188 C 14.730469 17.542969 14.859375 17.566406 14.996094 17.566406 C 15.128906 17.566406 15.261719 17.542969 15.386719 17.492188 C 15.511719 17.4375 15.621094 17.363281 15.714844 17.269531 C 15.8125 17.175781 15.886719 17.0625 15.9375 16.9375 C 15.988281 16.8125 16.015625 16.683594 16.015625 16.550781 L 16.015625 8.398438 C 16.015625 8.265625 15.988281 8.132812 15.9375 8.007812 C 15.886719 7.882812 15.8125 7.773438 15.714844 7.679688 C 15.621094 7.582031 15.511719 7.507812 15.386719 7.457031 C 15.261719 7.40625 15.128906 7.378906 14.996094 7.378906 Z M 14.996094 7.378906 " fill-opacity="1" fill-rule="nonzero"/><path fill="#1b9f63" d="M 14.996094 19.605469 C 15.128906 19.605469 15.261719 19.632812 15.386719 19.683594 C 15.511719 19.734375 15.621094 19.808594 15.714844 19.902344 C 15.8125 20 15.886719 20.109375 15.9375 20.234375 C 15.988281 20.359375 16.015625 20.488281 16.015625 20.625 C 16.015625 20.757812 15.988281 20.890625 15.9375 21.015625 C 15.886719 21.140625 15.8125 21.25 15.714844 21.34375 C 15.621094 21.441406 15.511719 21.515625 15.386719 21.566406 C 15.261719 21.617188 15.128906 21.644531 14.996094 21.644531 C 14.859375 21.644531 14.730469 21.617188 14.605469 21.566406 C 14.480469 21.515625 14.371094 21.441406 14.273438 21.34375 C 14.179688 21.25 14.105469 21.140625 14.054688 21.015625 C 14.003906 20.890625 13.976562 20.757812 13.976562 20.625 C 13.976562 20.488281 14.003906 20.359375 14.054688 20.234375 C 14.105469 20.109375 14.179688 20 14.273438 19.902344 C 14.371094 19.808594 14.480469 19.734375 14.605469 19.683594 C 14.730469 19.632812 14.859375 19.605469 14.996094 19.605469 Z M 14.996094 19.605469 " fill-opacity="1" fill-rule="nonzero"/></svg>