<svg xmlns="http://www.w3.org/2000/svg" xmlns:xlink="http://www.w3.org/1999/xlink" width="500" zoomAndPan="magnify" viewBox="0 0 375 374.999991" height="500" preserveAspectRatio="xMidYMid meet" version="1.0"><defs><clipPath id="afd7d00cc0"><path d="M 114.1875 113 L 216 113 L 216 260 L 114.1875 260 Z M 114.1875 113 " clip-rule="nonzero"/></clipPath></defs><g clip-path="url(#afd7d00cc0)"><path fill="#1b9f63" d="M 215.132812 160.910156 L 205.117188 160.910156 L 205.117188 124.535156 L 140.027344 124.535156 C 148.449219 129.445312 155.1875 133.734375 162.261719 137.363281 C 166.757812 139.671875 168.25 142.78125 168.210938 147.742188 C 168.003906 170.226562 168.121094 192.734375 168.121094 215.21875 L 168.121094 224.003906 L 204.816406 224.003906 L 204.816406 195.9375 L 215.09375 195.9375 C 215.09375 207.25 215.261719 218.316406 215.027344 229.382812 C 214.925781 233.824219 211.582031 234.886719 207.707031 234.863281 C 197.160156 234.796875 186.609375 234.835938 176.039062 234.835938 L 168.082031 234.835938 C 168.082031 241.132812 168.261719 246.953125 168.042969 252.746094 C 167.796875 259.457031 164.515625 261.363281 158.738281 258.082031 C 145.210938 250.4375 131.679688 242.78125 118.410156 234.695312 C 116.339844 233.4375 114.421875 229.976562 114.394531 227.515625 C 114.148438 191.917969 114.277344 156.324219 114.1875 120.726562 C 114.1875 115.621094 116.46875 113.703125 121.25 113.703125 C 150.109375 113.753906 178.964844 113.753906 207.824219 113.730469 C 211.683594 113.730469 215.015625 114.726562 215.066406 119.25 C 215.25 132.957031 215.132812 146.65625 215.132812 160.910156 " fill-opacity="1" fill-rule="nonzero"/></g><path fill="#1b9f63" d="M 225.71875 185.648438 C 216.921875 185.648438 209.003906 185.710938 201.085938 185.621094 C 194.476562 185.554688 190.691406 182.769531 191.199219 178.132812 C 191.820312 172.339844 195.890625 170.953125 200.941406 171.003906 C 208.875 171.082031 216.804688 171.015625 225.707031 171.015625 C 225.707031 167.050781 225.589844 163.4375 225.730469 159.835938 C 225.953125 154.546875 227.949219 153.238281 232.003906 156.089844 C 240.816406 162.320312 249.433594 168.828125 258.089844 175.265625 C 260.808594 177.289062 260.875 179.519531 258.089844 181.578125 C 249.226562 188.109375 240.402344 194.703125 231.433594 201.066406 C 227.726562 203.699219 225.875 201.742188 225.746094 197.699219 C 225.628906 194.019531 225.707031 190.324219 225.707031 185.648438 L 225.71875 185.648438 " fill-opacity="1" fill-rule="nonzero"/></svg>