<svg xmlns="http://www.w3.org/2000/svg" xmlns:xlink="http://www.w3.org/1999/xlink" width="40" zoomAndPan="magnify" viewBox="0 0 30 30.000001" height="40" preserveAspectRatio="xMidYMid meet" version="1.0"><defs><clipPath id="265531090f"><path d="M 5 1.960938 L 27 1.960938 L 27 27.363281 L 5 27.363281 Z M 5 1.960938 " clip-rule="nonzero"/></clipPath></defs><g clip-path="url(#265531090f)"><path fill="#38b6ff" d="M 20.125 18.699219 C 20.125 18.835938 20.097656 18.972656 20.046875 19.097656 C 19.992188 19.226562 19.917969 19.339844 19.820312 19.4375 C 19.722656 19.535156 19.609375 19.613281 19.480469 19.664062 C 19.351562 19.71875 19.21875 19.746094 19.078125 19.746094 L 16.988281 19.746094 L 16.988281 21.835938 C 16.988281 21.976562 16.960938 22.109375 16.90625 22.238281 C 16.855469 22.367188 16.777344 22.480469 16.679688 22.578125 C 16.582031 22.675781 16.46875 22.75 16.339844 22.804688 C 16.214844 22.855469 16.078125 22.882812 15.941406 22.882812 C 15.800781 22.882812 15.667969 22.855469 15.539062 22.804688 C 15.414062 22.75 15.300781 22.675781 15.203125 22.578125 C 15.101562 22.480469 15.027344 22.367188 14.976562 22.238281 C 14.921875 22.109375 14.894531 21.976562 14.894531 21.835938 L 14.894531 19.746094 L 12.800781 19.746094 C 12.664062 19.746094 12.53125 19.71875 12.402344 19.664062 C 12.273438 19.613281 12.160156 19.535156 12.0625 19.4375 C 11.964844 19.339844 11.890625 19.226562 11.835938 19.097656 C 11.78125 18.972656 11.757812 18.835938 11.757812 18.699219 C 11.757812 18.558594 11.78125 18.425781 11.835938 18.296875 C 11.890625 18.171875 11.964844 18.058594 12.0625 17.957031 C 12.160156 17.859375 12.273438 17.785156 12.402344 17.730469 C 12.53125 17.679688 12.664062 17.652344 12.800781 17.652344 L 14.894531 17.652344 L 14.894531 15.558594 C 14.894531 15.421875 14.921875 15.289062 14.976562 15.160156 C 15.027344 15.03125 15.101562 14.917969 15.203125 14.820312 C 15.300781 14.722656 15.414062 14.648438 15.539062 14.59375 C 15.667969 14.539062 15.800781 14.515625 15.941406 14.515625 C 16.078125 14.515625 16.214844 14.539062 16.339844 14.59375 C 16.46875 14.648438 16.582031 14.722656 16.679688 14.820312 C 16.777344 14.917969 16.855469 15.03125 16.90625 15.160156 C 16.960938 15.289062 16.988281 15.421875 16.988281 15.558594 L 16.988281 17.652344 L 19.078125 17.652344 C 19.21875 17.652344 19.351562 17.679688 19.480469 17.730469 C 19.609375 17.785156 19.722656 17.859375 19.820312 17.957031 C 19.917969 18.058594 19.992188 18.171875 20.046875 18.296875 C 20.097656 18.425781 20.125 18.558594 20.125 18.699219 Z M 26.402344 12.929688 L 26.402344 21.835938 C 26.402344 22.179688 26.367188 22.519531 26.300781 22.855469 C 26.234375 23.195312 26.136719 23.519531 26.003906 23.839844 C 25.871094 24.15625 25.710938 24.457031 25.519531 24.742188 C 25.328125 25.027344 25.113281 25.292969 24.871094 25.535156 C 24.625 25.777344 24.363281 25.992188 24.078125 26.183594 C 23.792969 26.375 23.488281 26.535156 23.171875 26.667969 C 22.855469 26.800781 22.527344 26.898438 22.191406 26.964844 C 21.855469 27.035156 21.515625 27.066406 21.171875 27.066406 L 10.710938 27.066406 C 10.367188 27.066406 10.027344 27.035156 9.691406 26.964844 C 9.355469 26.898438 9.027344 26.800781 8.710938 26.667969 C 8.390625 26.535156 8.089844 26.375 7.804688 26.183594 C 7.519531 25.992188 7.257812 25.777344 7.011719 25.535156 C 6.769531 25.292969 6.554688 25.027344 6.363281 24.742188 C 6.171875 24.457031 6.011719 24.15625 5.878906 23.839844 C 5.746094 23.519531 5.648438 23.195312 5.582031 22.855469 C 5.515625 22.519531 5.480469 22.179688 5.480469 21.835938 L 5.480469 7.191406 C 5.480469 6.847656 5.515625 6.507812 5.582031 6.171875 C 5.648438 5.832031 5.746094 5.507812 5.878906 5.191406 C 6.011719 4.871094 6.171875 4.570312 6.363281 4.285156 C 6.554688 4 6.769531 3.738281 7.011719 3.492188 C 7.257812 3.25 7.519531 3.035156 7.804688 2.84375 C 8.089844 2.652344 8.390625 2.492188 8.710938 2.359375 C 9.027344 2.226562 9.355469 2.128906 9.691406 2.0625 C 10.027344 1.992188 10.367188 1.960938 10.710938 1.960938 L 15.433594 1.960938 C 16.40625 1.957031 17.339844 2.140625 18.238281 2.511719 C 19.136719 2.886719 19.925781 3.414062 20.613281 4.105469 L 24.257812 7.75 C 24.945312 8.4375 25.476562 9.226562 25.847656 10.125 C 26.222656 11.023438 26.40625 11.957031 26.402344 12.929688 Z M 19.132812 5.582031 C 18.800781 5.261719 18.4375 4.992188 18.035156 4.769531 L 18.035156 9.28125 C 18.035156 9.421875 18.058594 9.554688 18.113281 9.683594 C 18.167969 9.8125 18.242188 9.925781 18.339844 10.023438 C 18.4375 10.121094 18.550781 10.195312 18.679688 10.25 C 18.808594 10.300781 18.941406 10.328125 19.078125 10.328125 L 23.59375 10.328125 C 23.371094 9.925781 23.097656 9.5625 22.777344 9.230469 Z M 24.3125 12.929688 C 24.3125 12.757812 24.277344 12.589844 24.261719 12.421875 L 19.078125 12.421875 C 18.664062 12.421875 18.261719 12.34375 17.878906 12.183594 C 17.496094 12.023438 17.15625 11.796875 16.859375 11.503906 C 16.566406 11.207031 16.339844 10.867188 16.179688 10.484375 C 16.019531 10.097656 15.941406 9.699219 15.941406 9.28125 L 15.941406 4.101562 C 15.773438 4.085938 15.605469 4.050781 15.433594 4.050781 L 10.710938 4.050781 C 10.292969 4.050781 9.894531 4.132812 9.507812 4.289062 C 9.125 4.449219 8.785156 4.675781 8.492188 4.972656 C 8.195312 5.265625 7.96875 5.605469 7.8125 5.988281 C 7.652344 6.375 7.570312 6.773438 7.570312 7.191406 L 7.570312 21.835938 C 7.570312 22.253906 7.652344 22.652344 7.8125 23.039062 C 7.96875 23.421875 8.195312 23.761719 8.492188 24.054688 C 8.785156 24.351562 9.125 24.578125 9.507812 24.738281 C 9.894531 24.894531 10.292969 24.976562 10.710938 24.976562 L 21.171875 24.976562 C 21.589844 24.976562 21.988281 24.894531 22.375 24.738281 C 22.757812 24.578125 23.097656 24.351562 23.390625 24.054688 C 23.6875 23.761719 23.914062 23.421875 24.070312 23.039062 C 24.230469 22.652344 24.3125 22.253906 24.3125 21.835938 Z M 24.3125 12.929688 " fill-opacity="1" fill-rule="nonzero"/></g></svg>