<svg xmlns="http://www.w3.org/2000/svg" xmlns:xlink="http://www.w3.org/1999/xlink" width="40" zoomAndPan="magnify" viewBox="0 0 30 30.000001" height="40" preserveAspectRatio="xMidYMid meet" version="1.0"><defs><clipPath id="d178ea3e2d"><path d="M 0.484375 0 L 29.515625 0 L 29.515625 29.03125 L 0.484375 29.03125 Z M 0.484375 0 " clip-rule="nonzero"/></clipPath><clipPath id="2faf9b89ca"><path d="M 8 5.078125 L 26.804688 5.078125 L 26.804688 23 L 8 23 Z M 8 5.078125 " clip-rule="nonzero"/></clipPath><clipPath id="43e879d5b5"><path d="M 5.753906 5.078125 L 14 5.078125 L 14 26.128906 L 5.753906 26.128906 Z M 5.753906 5.078125 " clip-rule="nonzero"/></clipPath></defs><g clip-path="url(#d178ea3e2d)"><path fill="#ffffff" d="M 0.484375 0 L 29.515625 0 L 29.515625 29.03125 L 0.484375 29.03125 Z M 0.484375 0 " fill-opacity="1" fill-rule="nonzero"/><path fill="#ffffff" d="M 0.484375 0 L 29.515625 0 L 29.515625 29.03125 L 0.484375 29.03125 Z M 0.484375 0 " fill-opacity="1" fill-rule="nonzero"/></g><g clip-path="url(#2faf9b89ca)"><path fill="#ffffff" d="M 26.367188 13.90625 L 23.09375 10.632812 C 22.804688 10.34375 22.335938 10.34375 22.046875 10.632812 C 21.757812 10.921875 21.757812 11.390625 22.046875 11.683594 L 24.054688 13.6875 L 18.425781 13.6875 L 18.425781 6.125 C 18.425781 5.847656 18.316406 5.585938 18.121094 5.390625 C 17.925781 5.195312 17.65625 5.085938 17.382812 5.085938 L 8.261719 5.085938 L 13.515625 7.640625 C 14.539062 8.136719 15.199219 9.195312 15.199219 10.332031 L 15.199219 22.132812 L 17.382812 22.132812 C 17.65625 22.132812 17.925781 22.019531 18.121094 21.828125 C 18.316406 21.628906 18.425781 21.367188 18.425781 21.089844 L 18.425781 16.65625 L 17.269531 16.65625 C 16.863281 16.65625 16.53125 16.324219 16.53125 15.914062 C 16.53125 15.503906 16.863281 15.171875 17.269531 15.171875 L 24.050781 15.171875 L 22.046875 17.179688 C 21.757812 17.46875 21.757812 17.9375 22.046875 18.226562 C 22.191406 18.371094 22.378906 18.445312 22.570312 18.445312 C 22.761719 18.445312 22.949219 18.371094 23.09375 18.226562 L 26.367188 14.953125 C 26.507812 14.816406 26.585938 14.625 26.585938 14.429688 C 26.585938 14.234375 26.507812 14.042969 26.367188 13.90625 Z M 26.367188 13.90625 " fill-opacity="1" fill-rule="nonzero"/></g><g clip-path="url(#43e879d5b5)"><path fill="#ffffff" d="M 12.867188 8.972656 L 5.929688 5.601562 C 5.839844 5.753906 5.78125 5.933594 5.78125 6.125 L 5.78125 21.269531 C 5.78125 21.960938 6.183594 22.605469 6.804688 22.90625 L 13.367188 26.097656 C 13.445312 26.132812 13.53125 26.128906 13.601562 26.085938 C 13.671875 26.042969 13.714844 25.960938 13.714844 25.878906 L 13.714844 10.332031 C 13.714844 9.757812 13.382812 9.226562 12.867188 8.972656 Z M 12.390625 17.703125 C 12.390625 18.113281 12.058594 18.445312 11.648438 18.445312 C 11.238281 18.445312 10.90625 18.113281 10.90625 17.703125 L 10.90625 15.175781 C 10.90625 14.765625 11.238281 14.433594 11.648438 14.433594 C 12.058594 14.433594 12.390625 14.765625 12.390625 15.175781 Z M 12.390625 17.703125 " fill-opacity="1" fill-rule="nonzero"/></g></svg>