<svg xmlns="http://www.w3.org/2000/svg" xmlns:xlink="http://www.w3.org/1999/xlink" width="40" zoomAndPan="magnify" viewBox="0 0 30 30.000001" height="40" preserveAspectRatio="xMidYMid meet" version="1.0"><defs><clipPath id="ef7ebaa5b8"><path d="M 2.261719 1.777344 L 27.664062 1.777344 L 27.664062 27.179688 L 2.261719 27.179688 Z M 2.261719 1.777344 " clip-rule="nonzero"/></clipPath></defs><g clip-path="url(#ef7ebaa5b8)"><path fill="#38b6ff" d="M 22.425781 6.023438 L 21.257812 6.023438 C 21.136719 5.425781 20.917969 4.863281 20.597656 4.339844 C 20.28125 3.816406 19.886719 3.363281 19.414062 2.976562 C 18.941406 2.589844 18.414062 2.292969 17.839844 2.085938 C 17.265625 1.882812 16.671875 1.777344 16.058594 1.777344 L 13.9375 1.777344 C 13.324219 1.777344 12.730469 1.882812 12.15625 2.085938 C 11.578125 2.292969 11.054688 2.589844 10.582031 2.976562 C 10.109375 3.363281 9.710938 3.816406 9.394531 4.339844 C 9.078125 4.863281 8.859375 5.425781 8.734375 6.023438 L 7.570312 6.023438 C 7.21875 6.023438 6.875 6.058594 6.535156 6.125 C 6.191406 6.195312 5.859375 6.296875 5.539062 6.429688 C 5.21875 6.5625 4.910156 6.726562 4.621094 6.917969 C 4.332031 7.113281 4.066406 7.332031 3.816406 7.578125 C 3.570312 7.824219 3.351562 8.09375 3.160156 8.382812 C 2.964844 8.671875 2.800781 8.976562 2.667969 9.300781 C 2.535156 9.621094 2.433594 9.953125 2.363281 10.296875 C 2.296875 10.636719 2.261719 10.980469 2.261719 11.328125 L 2.261719 21.941406 C 2.261719 22.292969 2.296875 22.636719 2.363281 22.976562 C 2.433594 23.320312 2.535156 23.652344 2.667969 23.972656 C 2.800781 24.292969 2.964844 24.601562 3.160156 24.890625 C 3.351562 25.179688 3.570312 25.445312 3.816406 25.695312 C 4.066406 25.941406 4.332031 26.160156 4.621094 26.351562 C 4.910156 26.546875 5.21875 26.710938 5.539062 26.84375 C 5.859375 26.976562 6.191406 27.078125 6.535156 27.148438 C 6.875 27.214844 7.21875 27.25 7.570312 27.25 L 22.425781 27.25 C 22.773438 27.25 23.121094 27.214844 23.460938 27.148438 C 23.804688 27.078125 24.136719 26.976562 24.457031 26.84375 C 24.777344 26.710938 25.082031 26.546875 25.375 26.351562 C 25.664062 26.160156 25.929688 25.941406 26.175781 25.695312 C 26.421875 25.445312 26.644531 25.179688 26.835938 24.890625 C 27.03125 24.601562 27.195312 24.292969 27.328125 23.972656 C 27.460938 23.652344 27.5625 23.320312 27.628906 22.976562 C 27.699219 22.636719 27.734375 22.292969 27.734375 21.941406 L 27.734375 11.328125 C 27.734375 10.980469 27.699219 10.636719 27.628906 10.296875 C 27.5625 9.953125 27.460938 9.621094 27.328125 9.300781 C 27.195312 8.976562 27.03125 8.671875 26.835938 8.382812 C 26.644531 8.09375 26.421875 7.824219 26.175781 7.578125 C 25.929688 7.332031 25.664062 7.113281 25.375 6.917969 C 25.082031 6.726562 24.777344 6.5625 24.457031 6.429688 C 24.136719 6.296875 23.804688 6.195312 23.460938 6.125 C 23.121094 6.058594 22.773438 6.023438 22.425781 6.023438 Z M 13.9375 3.902344 L 16.058594 3.902344 C 16.386719 3.902344 16.707031 3.953125 17.019531 4.054688 C 17.332031 4.152344 17.621094 4.300781 17.890625 4.488281 C 18.15625 4.679688 18.390625 4.90625 18.585938 5.167969 C 18.785156 5.429688 18.9375 5.714844 19.046875 6.023438 L 10.949219 6.023438 C 11.058594 5.714844 11.210938 5.429688 11.410156 5.167969 C 11.605469 4.90625 11.839844 4.679688 12.105469 4.488281 C 12.375 4.300781 12.664062 4.152344 12.976562 4.054688 C 13.289062 3.953125 13.609375 3.902344 13.9375 3.902344 Z M 7.570312 8.144531 L 22.425781 8.144531 C 22.847656 8.144531 23.253906 8.226562 23.644531 8.386719 C 24.035156 8.550781 24.378906 8.78125 24.679688 9.078125 C 24.976562 9.378906 25.207031 9.722656 25.367188 10.113281 C 25.53125 10.5 25.609375 10.90625 25.609375 11.328125 L 25.609375 14.515625 L 4.382812 14.515625 L 4.382812 11.328125 C 4.382812 10.90625 4.464844 10.5 4.628906 10.113281 C 4.789062 9.722656 5.019531 9.378906 5.316406 9.078125 C 5.617188 8.78125 5.960938 8.550781 6.351562 8.386719 C 6.742188 8.226562 7.144531 8.144531 7.570312 8.144531 Z M 22.425781 25.125 L 7.570312 25.125 C 7.144531 25.125 6.742188 25.046875 6.351562 24.882812 C 5.960938 24.722656 5.617188 24.492188 5.316406 24.195312 C 5.019531 23.894531 4.789062 23.550781 4.628906 23.160156 C 4.464844 22.769531 4.382812 22.363281 4.382812 21.941406 L 4.382812 16.636719 L 13.9375 16.636719 L 13.9375 17.699219 C 13.9375 17.839844 13.964844 17.972656 14.015625 18.105469 C 14.070312 18.234375 14.148438 18.347656 14.246094 18.449219 C 14.347656 18.546875 14.460938 18.625 14.589844 18.679688 C 14.722656 18.730469 14.855469 18.757812 14.996094 18.757812 C 15.136719 18.757812 15.273438 18.730469 15.402344 18.679688 C 15.535156 18.625 15.648438 18.546875 15.75 18.449219 C 15.847656 18.347656 15.925781 18.234375 15.976562 18.105469 C 16.03125 17.972656 16.058594 17.839844 16.058594 17.699219 L 16.058594 16.636719 L 25.609375 16.636719 L 25.609375 21.941406 C 25.609375 22.363281 25.53125 22.769531 25.367188 23.160156 C 25.207031 23.550781 24.976562 23.894531 24.679688 24.195312 C 24.378906 24.492188 24.035156 24.722656 23.644531 24.882812 C 23.253906 25.046875 22.847656 25.125 22.425781 25.125 Z M 22.425781 25.125 " fill-opacity="1" fill-rule="nonzero"/></g></svg>