<svg xmlns="http://www.w3.org/2000/svg" xmlns:xlink="http://www.w3.org/1999/xlink" width="644" zoomAndPan="magnify" viewBox="0 0 482.87997 209.999996" height="280" preserveAspectRatio="xMidYMid meet" version="1.0"><defs><clipPath id="1f6eb6055b"><path d="M 222 184 L 258 184 L 258 202.957031 L 222 202.957031 Z M 222 184 " clip-rule="nonzero"/></clipPath><clipPath id="f2255b1df1"><path d="M 190.078125 36 L 292.804688 36 L 292.804688 153 L 190.078125 153 Z M 190.078125 36 " clip-rule="nonzero"/></clipPath><clipPath id="07e16de577"><path d="M 214 7.253906 L 269 7.253906 L 269 35 L 214 35 Z M 214 7.253906 " clip-rule="nonzero"/></clipPath></defs><path fill="#ffffff" d="M 259.152344 163.675781 L 218.71875 154.8125 C 218.617188 154.785156 218.511719 154.761719 218.410156 154.710938 C 217.664062 154.527344 216.941406 154.246094 216.296875 153.910156 C 214.878906 153.242188 213.695312 152.289062 213.050781 151.152344 C 212.664062 150.484375 212.277344 149.402344 212.664062 148.191406 C 213.128906 146.824219 214.492188 145.765625 216.269531 145.125 C 216.914062 144.890625 217.636719 144.738281 218.382812 144.632812 C 218.824219 144.582031 219.207031 144.480469 219.671875 144.480469 C 220.523438 144.480469 221.375 144.582031 222.199219 144.761719 L 239.671875 148.601562 L 241.785156 149.066406 L 262.65625 153.628906 C 262.761719 153.652344 262.863281 153.703125 262.964844 153.730469 C 263.714844 153.910156 264.433594 154.195312 265.078125 154.503906 C 266.496094 155.199219 267.65625 156.128906 268.300781 157.261719 C 268.6875 157.929688 269.074219 159.011719 268.6875 160.222656 C 268.222656 161.589844 266.855469 162.648438 265.078125 163.289062 C 264.046875 163.652344 262.941406 163.910156 261.703125 163.910156 C 260.929688 163.910156 260.132812 163.804688 259.382812 163.652344 C 259.308594 163.625 259.230469 163.652344 259.152344 163.625 Z M 253.6875 155.070312 C 253.558594 155.636719 253.921875 156.203125 254.488281 156.332031 L 262.632812 158.109375 C 262.707031 158.136719 262.785156 158.136719 262.863281 158.136719 C 262.890625 158.136719 262.914062 158.109375 262.964844 158.109375 C 263.402344 158.085938 263.789062 157.777344 263.917969 157.3125 C 264.046875 156.746094 263.6875 156.179688 263.09375 156.050781 L 262.964844 156.023438 L 254.953125 154.273438 C 254.386719 154.144531 253.816406 154.503906 253.6875 155.070312 Z M 253.6875 155.070312 " fill-opacity="1" fill-rule="evenodd"/><path fill="#ffffff" d="M 222.199219 157.957031 L 248.484375 163.703125 L 258.148438 165.816406 L 262.65625 166.796875 C 265.234375 167.363281 267.347656 168.726562 268.328125 170.429688 C 268.710938 171.125 269.097656 172.179688 268.710938 173.394531 C 267.992188 175.558594 265.128906 177.078125 261.703125 177.078125 C 261.136719 177.078125 260.542969 176.976562 259.949219 176.898438 C 259.695312 176.847656 259.410156 176.871094 259.152344 176.792969 L 257.476562 176.433594 L 228.71875 170.121094 L 226.113281 169.554688 L 218.71875 167.929688 C 216.140625 167.363281 214.027344 166.023438 213.050781 164.296875 C 212.664062 163.625 212.277344 162.542969 212.664062 161.332031 C 213.128906 159.964844 214.492188 158.910156 216.269531 158.265625 C 216.914062 158.035156 217.636719 157.878906 218.382812 157.777344 C 218.824219 157.726562 219.207031 157.621094 219.671875 157.621094 C 220.523438 157.621094 221.375 157.726562 222.199219 157.90625 Z M 254.796875 169.21875 L 262.632812 170.917969 C 262.707031 170.945312 262.785156 170.945312 262.863281 170.945312 C 263.351562 170.945312 263.789062 170.609375 263.894531 170.121094 C 264.023438 169.554688 263.660156 168.984375 263.070312 168.855469 L 254.898438 167.054688 C 254.332031 166.925781 253.765625 167.285156 253.636719 167.851562 C 253.613281 168.03125 253.6875 168.160156 253.742188 168.316406 C 253.84375 168.675781 254.074219 169.011719 254.460938 169.113281 L 254.796875 169.191406 Z M 254.796875 169.21875 " fill-opacity="1" fill-rule="evenodd"/><path fill="#ffffff" d="M 226.734375 172.105469 L 258.40625 179.0625 L 260.777344 179.578125 L 262.65625 179.988281 C 265.207031 180.558594 267.347656 181.898438 268.328125 183.625 C 268.710938 184.320312 269.097656 185.375 268.710938 186.585938 C 267.992188 188.75 265.128906 190.273438 261.730469 190.273438 C 261.292969 190.273438 260.851562 190.167969 260.414062 190.117188 C 260.027344 190.066406 259.589844 190.066406 259.179688 189.988281 L 258.300781 189.78125 L 222.378906 181.898438 L 220.316406 181.457031 L 218.71875 181.097656 C 216.140625 180.53125 214.027344 179.191406 213.050781 177.464844 C 212.484375 176.484375 212.355469 175.453125 212.664062 174.5 C 213.386719 172.335938 216.246094 170.816406 219.648438 170.816406 C 220.496094 170.816406 221.347656 170.917969 222.171875 171.097656 L 226.707031 172.105469 Z M 254.953125 180.222656 C 254.386719 180.09375 253.816406 180.453125 253.6875 181.019531 C 253.558594 181.613281 253.921875 182.15625 254.488281 182.285156 L 259.125 183.289062 L 261.292969 183.753906 L 262.632812 184.0625 C 262.707031 184.085938 262.785156 184.085938 262.863281 184.085938 C 263.351562 184.085938 263.789062 183.753906 263.894531 183.261719 C 264.023438 182.695312 263.660156 182.128906 263.070312 182 L 261.035156 181.5625 L 258.867188 181.070312 L 254.898438 180.222656 Z M 254.953125 180.222656 " fill-opacity="1" fill-rule="evenodd"/><g clip-path="url(#1f6eb6055b)"><path fill="#ffffff" d="M 222.148438 184.035156 L 257.554688 191.792969 C 254.640625 198.234375 248.199219 202.746094 240.675781 202.746094 C 230.445312 202.746094 222.121094 194.421875 222.121094 184.191406 C 222.121094 184.140625 222.148438 184.085938 222.148438 184.035156 Z M 237.429688 198.777344 C 237.609375 198.210938 237.273438 197.617188 236.730469 197.460938 C 232.453125 196.171875 229.054688 192.902344 227.609375 188.675781 C 227.402344 188.132812 226.8125 187.851562 226.269531 188.003906 C 225.730469 188.183594 225.417969 188.804688 225.601562 189.34375 C 227.273438 194.214844 231.21875 198.003906 236.140625 199.472656 C 236.242188 199.496094 236.347656 199.523438 236.449219 199.523438 C 236.914062 199.523438 237.324219 199.238281 237.453125 198.75 Z M 237.429688 198.777344 " fill-opacity="1" fill-rule="evenodd"/></g><g clip-path="url(#f2255b1df1)"><path fill="#ffffff" d="M 271.882812 122.601562 C 266.601562 130.046875 262.0625 136.492188 261.730469 141.542969 L 261.730469 151.074219 L 263.300781 151.410156 L 265.414062 151.875 L 267.835938 152.417969 L 267.835938 141.746094 C 267.964844 140.199219 269.023438 138.011719 270.566406 135.433594 C 272.242188 132.652344 274.511719 129.429688 276.855469 126.105469 C 277.578125 125.101562 278.171875 124.222656 278.582031 123.65625 C 279.253906 122.703125 279.84375 121.851562 280.308594 121.183594 C 283.039062 117.214844 286.855469 110.953125 289.535156 103.789062 C 291.417969 98.738281 292.757812 93.222656 292.757812 87.757812 C 292.757812 73.613281 287.007812 60.777344 277.707031 51.5 C 268.402344 42.199219 255.597656 36.453125 241.421875 36.453125 C 227.273438 36.453125 214.441406 42.199219 205.164062 51.5 C 195.859375 60.804688 190.113281 73.613281 190.113281 87.757812 C 190.113281 93.25 191.453125 98.738281 193.335938 103.8125 C 196.015625 111.003906 199.828125 117.238281 202.5625 121.207031 C 202.972656 121.800781 203.566406 122.675781 204.289062 123.683594 C 204.675781 124.25 205.320312 125.125 206.015625 126.128906 C 207.894531 128.785156 209.726562 131.386719 211.195312 133.65625 C 212.664062 135.921875 213.824219 138.011719 214.492188 139.789062 L 214.878906 140.792969 L 215.9375 141.027344 L 218.332031 141.542969 L 221.578125 142.261719 L 220.679688 139.066406 C 220.007812 136.722656 218.695312 134.144531 216.941406 131.335938 C 215.242188 128.578125 213.179688 125.691406 211.015625 122.601562 C 210.292969 121.570312 209.699219 120.746094 209.3125 120.203125 C 208.847656 119.535156 208.28125 118.734375 207.636719 117.78125 C 205.5 114.664062 202.640625 110.050781 200.320312 104.714844 C 198.027344 99.457031 196.246094 93.558594 196.273438 87.757812 C 196.273438 75.285156 201.351562 63.972656 209.519531 55.804688 C 217.6875 47.636719 229 42.558594 241.472656 42.558594 C 253.945312 42.558594 265.234375 47.636719 273.429688 55.804688 C 281.625 64 286.699219 75.3125 286.699219 87.757812 C 286.699219 92.5 285.515625 97.320312 283.839844 101.777344 C 281.390625 108.296875 277.835938 114.070312 275.335938 117.753906 C 274.589844 118.839844 273.507812 120.359375 272.449219 121.878906 L 271.960938 122.601562 Z M 271.882812 122.601562 " fill-opacity="1" fill-rule="nonzero"/></g><g clip-path="url(#07e16de577)"><path fill="#38b6ff" d="M 242.273438 30.265625 C 244.386719 30.265625 246.113281 28.539062 246.113281 26.425781 L 246.113281 11.09375 C 246.113281 8.980469 244.386719 7.253906 242.273438 7.253906 C 240.160156 7.253906 238.433594 8.980469 238.433594 11.09375 L 238.433594 26.425781 C 238.433594 28.539062 240.160156 30.265625 242.273438 30.265625 Z M 256.9375 33.230469 C 254.976562 32.429688 254.050781 30.164062 254.847656 28.230469 L 260.699219 14.058594 C 261.496094 12.097656 263.765625 11.171875 265.699219 11.96875 C 267.65625 12.769531 268.585938 15.035156 267.785156 16.96875 L 261.933594 31.144531 C 261.136719 33.101562 258.867188 34.027344 256.9375 33.230469 Z M 225.910156 33.898438 C 227.867188 33.101562 228.796875 30.832031 227.996094 28.902344 L 222.148438 14.726562 C 221.347656 12.769531 219.078125 11.839844 217.148438 12.640625 C 215.1875 13.4375 214.261719 15.707031 215.058594 17.640625 L 220.910156 31.8125 C 221.707031 33.769531 223.976562 34.699219 225.910156 33.898438 Z M 225.910156 33.898438 " fill-opacity="1" fill-rule="evenodd"/></g><path fill="#38b6ff" d="M 239.359375 74.953125 C 239.4375 74.308594 240.03125 73.871094 240.675781 73.945312 C 241.320312 74.023438 241.757812 74.617188 241.679688 75.261719 C 241.527344 76.445312 241.859375 77.582031 242.53125 78.480469 C 243.199219 79.359375 244.207031 80.003906 245.390625 80.15625 C 246.035156 80.234375 246.472656 80.828125 246.394531 81.472656 C 246.320312 82.117188 245.726562 82.554688 245.082031 82.476562 C 243.253906 82.21875 241.707031 81.265625 240.675781 79.898438 C 240.675781 79.875 240.648438 79.875 240.648438 79.847656 C 239.207031 80.285156 236.421875 80.699219 234.542969 78.199219 C 234.15625 77.683594 234.257812 76.9375 234.773438 76.550781 C 235.289062 76.164062 236.035156 76.265625 236.421875 76.78125 C 237.324219 77.96875 238.691406 77.914062 239.59375 77.710938 C 239.335938 76.832031 239.257812 75.90625 239.386719 74.953125 Z M 260.800781 77.582031 Z M 241.730469 67.8125 Z M 239.722656 66.601562 Z M 218.71875 94.691406 Z M 220.265625 84.589844 Z M 222.277344 83.378906 Z M 220.085938 96.597656 Z M 258.378906 94.046875 C 259.667969 92.757812 260.464844 90.980469 260.464844 88.996094 C 260.464844 87.039062 259.667969 85.257812 258.378906 83.945312 C 257.089844 82.65625 255.3125 81.859375 253.328125 81.859375 C 252.683594 81.859375 252.144531 81.34375 252.144531 80.671875 C 252.144531 80.027344 252.683594 79.488281 253.328125 79.488281 C 255.957031 79.488281 258.328125 80.542969 260.027344 82.269531 C 261.753906 83.996094 262.8125 86.367188 262.8125 88.96875 C 262.8125 89.691406 262.734375 90.386719 262.578125 91.058594 C 263.300781 91.265625 264.046875 91.394531 264.847656 91.394531 C 269.023438 91.394531 272.449219 88.171875 272.785156 84.074219 C 274.589844 82.992188 275.800781 81.007812 275.800781 78.738281 C 275.800781 76.058594 274.097656 73.765625 271.726562 72.914062 C 270.902344 74.460938 269.667969 75.699219 268.222656 76.574219 C 266.136719 77.8125 263.585938 78.25 261.035156 77.605469 L 260.929688 77.582031 L 260.800781 77.503906 C 260.234375 77.21875 259.976562 76.496094 260.285156 75.929688 C 260.542969 75.441406 261.109375 75.183594 261.625 75.3125 C 263.53125 75.800781 265.464844 75.46875 267.039062 74.539062 C 268.609375 73.613281 269.820312 72.089844 270.3125 70.183594 C 270.566406 69.179688 270.59375 68.148438 270.414062 67.167969 C 269.511719 64.953125 267.785156 62.941406 265.464844 61.601562 C 265.363281 61.578125 265.257812 61.550781 265.15625 61.527344 C 264.898438 61.449219 264.667969 61.320312 264.511719 61.113281 C 264.230469 60.984375 263.917969 60.828125 263.609375 60.726562 C 260.3125 59.464844 256.859375 59.671875 254.128906 61.011719 C 252.710938 58.84375 250.261719 57.429688 247.476562 57.429688 C 245.777344 57.429688 244.207031 57.96875 242.917969 58.871094 C 243.148438 59.464844 243.304688 60.082031 243.40625 60.699219 C 243.792969 63.097656 243.277344 65.625 241.757812 67.761719 C 241.421875 68.226562 240.804688 68.40625 240.289062 68.121094 C 239.722656 67.839844 239.464844 67.117188 239.773438 66.550781 L 239.875 66.394531 C 241.035156 64.796875 241.421875 62.867188 241.113281 61.085938 C 240.933594 60.058594 240.546875 59.050781 239.929688 58.175781 C 238.640625 57.300781 237.09375 56.785156 235.445312 56.785156 C 231.21875 56.785156 227.738281 60.082031 227.480469 64.257812 C 226.113281 63.148438 224.363281 62.480469 222.480469 62.480469 C 222.171875 62.480469 221.890625 62.503906 221.605469 62.53125 C 221.476562 62.632812 221.347656 62.710938 221.167969 62.738281 C 219.261719 63.226562 217.738281 64.4375 216.8125 66.007812 C 215.882812 67.582031 215.550781 69.515625 216.039062 71.421875 C 216.527344 73.328125 217.738281 74.847656 219.3125 75.777344 C 220.882812 76.703125 222.816406 77.039062 224.722656 76.550781 L 224.878906 76.523438 L 225.03125 76.523438 C 225.675781 76.523438 226.21875 77.039062 226.21875 77.710938 C 226.21875 78.277344 225.804688 78.765625 225.289062 78.867188 C 222.765625 79.488281 220.238281 79.050781 218.152344 77.8125 C 216.066406 76.574219 214.441406 74.539062 213.796875 71.988281 L 213.769531 71.832031 C 213.667969 71.421875 213.617188 71.007812 213.566406 70.597656 C 209.933594 71.34375 207.199219 74.539062 207.199219 78.40625 C 207.199219 80.648438 208.128906 82.707031 209.648438 84.152344 C 208.515625 85.515625 207.84375 87.269531 207.84375 89.203125 C 207.84375 90.464844 208.128906 91.675781 208.667969 92.734375 C 208.773438 92.808594 208.847656 92.886719 208.925781 92.992188 C 210.0625 94.589844 211.761719 95.566406 213.566406 95.875 C 215.371094 96.1875 217.277344 95.773438 218.875 94.640625 C 220.472656 93.507812 221.449219 91.804688 221.761719 90.027344 C 222.070312 88.222656 221.65625 86.316406 220.523438 84.71875 L 220.421875 84.5625 C 220.136719 83.972656 220.367188 83.277344 220.933594 82.992188 C 221.449219 82.734375 222.09375 82.890625 222.40625 83.351562 C 223.925781 85.492188 224.441406 88.015625 224.054688 90.414062 C 223.667969 92.808594 222.351562 95.050781 220.214844 96.574219 C 219.929688 96.777344 219.648438 96.960938 219.335938 97.140625 C 219.335938 97.21875 219.335938 97.292969 219.335938 97.371094 C 219.335938 101.777344 222.894531 105.335938 227.300781 105.335938 C 229.644531 105.335938 231.757812 104.328125 233.203125 102.707031 L 233.304688 102.578125 C 233.433594 102.628906 233.5625 102.707031 233.664062 102.757812 C 233.792969 107.0625 232.429688 112.394531 229.492188 118.785156 C 236.398438 114.765625 241.398438 108.195312 244.515625 99.125 C 244.667969 99.125 244.824219 99.148438 245.003906 99.148438 C 247.273438 99.148438 249.257812 97.914062 250.339844 96.109375 C 250.105469 94.535156 249.386719 93.144531 248.328125 92.0625 C 247.039062 90.773438 245.261719 89.976562 243.277344 89.976562 C 242.632812 89.976562 242.09375 89.433594 242.09375 88.789062 C 242.09375 88.144531 242.609375 87.605469 243.277344 87.605469 C 245.90625 87.605469 248.277344 88.660156 249.976562 90.386719 C 251.5 91.910156 252.503906 93.917969 252.710938 96.1875 C 252.761719 96.210938 252.8125 96.238281 252.863281 96.261719 C 253.019531 96.1875 253.226562 96.132812 253.40625 96.132812 C 255.363281 96.132812 257.140625 95.335938 258.457031 94.046875 Z M 248.433594 67.375 C 248.046875 66.859375 248.148438 66.113281 248.664062 65.726562 C 249.179688 65.339844 249.925781 65.441406 250.3125 65.957031 C 251.214844 67.144531 252.582031 67.09375 253.484375 66.886719 C 253.226562 66.007812 253.148438 65.082031 253.277344 64.128906 C 253.355469 63.484375 253.945312 63.046875 254.589844 63.125 C 255.234375 63.199219 255.671875 63.792969 255.597656 64.4375 C 255.441406 65.625 255.777344 66.757812 256.445312 67.660156 C 257.117188 68.535156 258.121094 69.152344 259.308594 69.332031 C 259.949219 69.410156 260.390625 70.003906 260.3125 70.648438 C 260.234375 71.292969 259.640625 71.730469 258.996094 71.652344 C 257.167969 71.394531 255.621094 70.441406 254.589844 69.078125 C 254.589844 69.050781 254.566406 69.050781 254.566406 69.023438 C 253.121094 69.460938 250.339844 69.875 248.457031 67.375 Z M 228.847656 89.074219 C 230.675781 89.332031 232.222656 90.285156 233.253906 91.652344 C 233.253906 91.675781 233.277344 91.675781 233.277344 91.703125 C 234.722656 91.265625 237.503906 90.851562 239.386719 93.351562 C 239.773438 93.867188 239.671875 94.613281 239.15625 95 C 238.640625 95.386719 237.890625 95.285156 237.503906 94.769531 C 236.605469 93.582031 235.238281 93.636719 234.335938 93.839844 C 234.59375 94.71875 234.671875 95.644531 234.542969 96.597656 C 234.464844 97.242188 233.871094 97.679688 233.226562 97.601562 C 232.582031 97.527344 232.144531 96.933594 232.222656 96.289062 C 232.378906 95.105469 232.042969 93.96875 231.371094 93.066406 C 230.703125 92.191406 229.695312 91.574219 228.511719 91.394531 C 227.867188 91.316406 227.429688 90.722656 227.507812 90.078125 C 227.585938 89.433594 228.175781 88.996094 228.820312 89.074219 Z M 228.847656 89.074219 " fill-opacity="1" fill-rule="evenodd"/></svg>