<svg xmlns="http://www.w3.org/2000/svg" xmlns:xlink="http://www.w3.org/1999/xlink" width="500" zoomAndPan="magnify" viewBox="0 0 375 225" height="300" preserveAspectRatio="xMidYMid meet" version="1.0"><defs><g/><clipPath id="0465a469b3"><path d="M 77 119 L 133.453125 119 L 133.453125 156 L 77 156 Z M 77 119 " clip-rule="nonzero"/></clipPath><clipPath id="0385c1fda4"><path d="M 47.203125 69.167969 L 133.453125 69.167969 L 133.453125 149 L 47.203125 149 Z M 47.203125 69.167969 " clip-rule="nonzero"/></clipPath></defs><g clip-path="url(#0465a469b3)"><path fill="#f3f6fa" d="M 115.261719 131.34375 C 109.5625 138.816406 100.574219 143.652344 90.480469 143.652344 C 88.09375 143.652344 85.75 143.394531 83.476562 142.875 L 77.140625 153.671875 C 81.429688 155.0625 85.902344 155.769531 90.480469 155.769531 C 96.320312 155.769531 101.988281 154.628906 107.328125 152.371094 C 112.480469 150.1875 117.109375 147.070312 121.082031 143.097656 C 124.519531 139.660156 127.316406 135.730469 129.421875 131.390625 C 129.75 130.71875 130.058594 130.03125 130.351562 129.339844 C 131.722656 126.097656 132.683594 122.738281 133.226562 119.28125 L 97.355469 119.28125 L 90.246094 131.34375 Z M 115.261719 131.34375 " fill-opacity="1" fill-rule="nonzero"/></g><g clip-path="url(#0385c1fda4)"><path fill="#f3f6fa" d="M 73.195312 72.816406 C 67.921875 75.117188 63.222656 78.398438 59.226562 82.566406 C 58.59375 83.226562 57.972656 83.917969 57.382812 84.617188 L 57.382812 84.621094 C 57.285156 84.738281 57.1875 84.855469 57.085938 84.972656 L 73.265625 112.5 L 64.449219 127.503906 L 48.714844 101.121094 C 47.71875 104.789062 47.203125 108.609375 47.203125 112.5 C 47.203125 116.984375 47.882812 121.371094 49.21875 125.582031 C 49.621094 126.855469 50.082031 128.109375 50.605469 129.347656 C 52.246094 133.222656 54.421875 136.800781 57.089844 140.027344 C 57.800781 140.886719 58.550781 141.730469 59.332031 142.539062 L 59.347656 142.566406 L 59.878906 143.097656 C 61.84375 145.058594 63.964844 146.8125 66.230469 148.347656 C 66.234375 148.347656 66.234375 148.347656 66.238281 148.351562 L 87.296875 112.496094 L 72.375 87.105469 C 77.617188 83.347656 83.875 81.3125 90.480469 81.3125 C 100.574219 81.3125 109.558594 86.179688 115.261719 93.589844 L 90.25 93.589844 L 97.359375 105.710938 L 133.226562 105.710938 C 132.683594 102.257812 131.722656 98.898438 130.351562 95.65625 C 130.058594 94.964844 129.75 94.277344 129.421875 93.605469 C 127.316406 89.269531 124.519531 85.335938 121.082031 81.898438 C 117.109375 77.925781 112.480469 74.804688 107.328125 72.625 C 101.984375 70.371094 96.320312 69.226562 90.480469 69.226562 C 84.476562 69.226562 78.660156 70.433594 73.195312 72.816406 Z M 73.195312 72.816406 " fill-opacity="1" fill-rule="nonzero"/></g><path stroke-linecap="round" transform="matrix(0, -0.75, 0.75, 0, 152.120398, 174.750003)" fill="none" stroke-linejoin="miter" d="M 2.500004 2.500927 L 163.515635 2.500927 " stroke="#3ac895" stroke-width="5" stroke-opacity="1" stroke-miterlimit="4"/><g fill="#f3f6fa" fill-opacity="1"><g transform="translate(169.838475, 125.319168)"><g><path d="M 0.328125 0 L 0.328125 -0.421875 L 1.375 -0.796875 C 1.9375 -1.015625 2.367188 -1.285156 2.671875 -1.609375 C 2.984375 -1.929688 3.234375 -2.382812 3.421875 -2.96875 L 12.03125 -27.65625 L 15.578125 -27.65625 L 24.0625 -2.796875 C 24.289062 -2.179688 24.539062 -1.710938 24.8125 -1.390625 C 25.09375 -1.078125 25.523438 -0.804688 26.109375 -0.578125 L 26.609375 -0.421875 L 26.609375 0 L 16 0 L 16 -0.421875 L 16.625 -0.625 C 17.207031 -0.851562 17.5625 -1.164062 17.6875 -1.5625 C 17.8125 -1.96875 17.789062 -2.453125 17.625 -3.015625 L 15.671875 -9.03125 L 6.390625 -9.03125 L 4.390625 -3.140625 C 4.191406 -2.523438 4.125 -2.035156 4.1875 -1.671875 C 4.257812 -1.304688 4.59375 -1.015625 5.1875 -0.796875 L 6.09375 -0.421875 L 6.09375 0 Z M 6.6875 -9.859375 L 15.421875 -9.859375 L 11.203125 -22.859375 Z M 6.6875 -9.859375 "/></g></g></g><g fill="#f3f6fa" fill-opacity="1"><g transform="translate(204.222666, 125.319168)"><g><path d="M 0.921875 0 L 0.921875 -0.421875 L 1.796875 -0.75 C 2.378906 -0.976562 2.75 -1.25 2.90625 -1.5625 C 3.0625 -1.882812 3.140625 -2.328125 3.140625 -2.890625 L 3.140625 -24.6875 C 3.140625 -25.25 3.050781 -25.695312 2.875 -26.03125 C 2.707031 -26.363281 2.347656 -26.628906 1.796875 -26.828125 L 0.921875 -27.15625 L 0.921875 -27.578125 L 11.578125 -27.578125 L 11.578125 -27.15625 L 10.828125 -26.828125 C 10.296875 -26.628906 9.929688 -26.351562 9.734375 -26 C 9.535156 -25.65625 9.4375 -25.207031 9.4375 -24.65625 L 9.4375 -0.828125 L 15.875 -0.828125 C 16.90625 -0.828125 17.664062 -1.078125 18.15625 -1.578125 C 18.644531 -2.085938 19.109375 -2.816406 19.546875 -3.765625 L 21.1875 -7.265625 L 21.59375 -7.265625 L 21.21875 0 Z M 0.921875 0 "/></g></g></g><g fill="#f3f6fa" fill-opacity="1"><g transform="translate(234.011411, 125.319168)"><g><path d="M 0.921875 0 L 0.921875 -0.421875 L 1.75 -0.703125 C 2.3125 -0.878906 2.679688 -1.132812 2.859375 -1.46875 C 3.046875 -1.800781 3.140625 -2.242188 3.140625 -2.796875 L 3.140625 -24.6875 C 3.140625 -25.25 3.039062 -25.695312 2.84375 -26.03125 C 2.644531 -26.363281 2.269531 -26.628906 1.71875 -26.828125 L 0.921875 -27.15625 L 0.921875 -27.578125 L 11.078125 -27.578125 C 15.222656 -27.578125 18.222656 -26.816406 20.078125 -25.296875 C 21.929688 -23.773438 22.859375 -21.773438 22.859375 -19.296875 C 22.859375 -17.710938 22.472656 -16.257812 21.703125 -14.9375 C 20.941406 -13.613281 19.679688 -12.5625 17.921875 -11.78125 C 16.171875 -11 13.804688 -10.609375 10.828125 -10.609375 L 9.40625 -10.609375 L 9.40625 -2.921875 C 9.40625 -1.835938 9.945312 -1.128906 11.03125 -0.796875 L 12.28125 -0.421875 L 12.28125 0 Z M 9.40625 -11.453125 L 10.984375 -11.453125 C 12.347656 -11.453125 13.460938 -11.671875 14.328125 -12.109375 C 15.191406 -12.554688 15.832031 -13.335938 16.25 -14.453125 C 16.664062 -15.566406 16.875 -17.113281 16.875 -19.09375 C 16.875 -21.101562 16.644531 -22.660156 16.1875 -23.765625 C 15.726562 -24.878906 15.050781 -25.648438 14.15625 -26.078125 C 13.269531 -26.515625 12.160156 -26.734375 10.828125 -26.734375 L 9.40625 -26.734375 Z M 9.40625 -11.453125 "/></g></g></g><g fill="#f3f6fa" fill-opacity="1"><g transform="translate(264.844573, 125.319168)"><g><path d="M 0.921875 0 L 0.921875 -0.421875 L 1.75 -0.75 C 2.3125 -0.945312 2.679688 -1.210938 2.859375 -1.546875 C 3.046875 -1.878906 3.140625 -2.3125 3.140625 -2.84375 L 3.140625 -24.6875 C 3.140625 -25.25 3.046875 -25.695312 2.859375 -26.03125 C 2.679688 -26.363281 2.3125 -26.628906 1.75 -26.828125 L 0.921875 -27.15625 L 0.921875 -27.578125 L 11.53125 -27.578125 L 11.53125 -27.15625 L 10.828125 -26.859375 C 10.296875 -26.671875 9.929688 -26.414062 9.734375 -26.09375 C 9.535156 -25.769531 9.4375 -25.332031 9.4375 -24.78125 L 9.4375 -14.625 L 19.421875 -14.625 L 19.421875 -24.78125 C 19.421875 -25.332031 19.332031 -25.769531 19.15625 -26.09375 C 18.976562 -26.414062 18.609375 -26.671875 18.046875 -26.859375 L 17.296875 -27.15625 L 17.296875 -27.578125 L 27.953125 -27.578125 L 27.953125 -27.15625 L 27.109375 -26.828125 C 26.585938 -26.628906 26.226562 -26.363281 26.03125 -26.03125 C 25.832031 -25.695312 25.734375 -25.25 25.734375 -24.6875 L 25.734375 -2.84375 C 25.734375 -2.3125 25.832031 -1.878906 26.03125 -1.546875 C 26.226562 -1.210938 26.585938 -0.945312 27.109375 -0.75 L 27.953125 -0.421875 L 27.953125 0 L 17.296875 0 L 17.296875 -0.421875 L 18.046875 -0.671875 C 18.609375 -0.890625 18.976562 -1.160156 19.15625 -1.484375 C 19.332031 -1.804688 19.421875 -2.242188 19.421875 -2.796875 L 19.421875 -13.78125 L 9.4375 -13.78125 L 9.4375 -2.796875 C 9.4375 -1.765625 9.898438 -1.054688 10.828125 -0.671875 L 11.53125 -0.421875 L 11.53125 0 Z M 0.921875 0 "/></g></g></g><g fill="#f3f6fa" fill-opacity="1"><g transform="translate(300.941611, 125.319168)"><g><path d="M 0.328125 0 L 0.328125 -0.421875 L 1.375 -0.796875 C 1.9375 -1.015625 2.367188 -1.285156 2.671875 -1.609375 C 2.984375 -1.929688 3.234375 -2.382812 3.421875 -2.96875 L 12.03125 -27.65625 L 15.578125 -27.65625 L 24.0625 -2.796875 C 24.289062 -2.179688 24.539062 -1.710938 24.8125 -1.390625 C 25.09375 -1.078125 25.523438 -0.804688 26.109375 -0.578125 L 26.609375 -0.421875 L 26.609375 0 L 16 0 L 16 -0.421875 L 16.625 -0.625 C 17.207031 -0.851562 17.5625 -1.164062 17.6875 -1.5625 C 17.8125 -1.96875 17.789062 -2.453125 17.625 -3.015625 L 15.671875 -9.03125 L 6.390625 -9.03125 L 4.390625 -3.140625 C 4.191406 -2.523438 4.125 -2.035156 4.1875 -1.671875 C 4.257812 -1.304688 4.59375 -1.015625 5.1875 -0.796875 L 6.09375 -0.421875 L 6.09375 0 Z M 6.6875 -9.859375 L 15.421875 -9.859375 L 11.203125 -22.859375 Z M 6.6875 -9.859375 "/></g></g></g></svg>