<svg xmlns="http://www.w3.org/2000/svg" xmlns:xlink="http://www.w3.org/1999/xlink" width="644" zoomAndPan="magnify" viewBox="0 0 482.87997 209.999996" height="280" preserveAspectRatio="xMidYMid meet" version="1.0"><defs><g/><clipPath id="bc0409b292"><path d="M 110 181 L 146 181 L 146 200.265625 L 110 200.265625 Z M 110 181 " clip-rule="nonzero"/></clipPath><clipPath id="093720f328"><path d="M 78.421875 33 L 181.144531 33 L 181.144531 150 L 78.421875 150 Z M 78.421875 33 " clip-rule="nonzero"/></clipPath><clipPath id="1cc4d3d1cf"><path d="M 103 4.5625 L 157 4.5625 L 157 32 L 103 32 Z M 103 4.5625 " clip-rule="nonzero"/></clipPath><clipPath id="5cac6150d5"><path d="M 217.996094 4.5625 L 222.613281 4.5625 L 222.613281 200.070312 L 217.996094 200.070312 Z M 217.996094 4.5625 " clip-rule="nonzero"/></clipPath><clipPath id="33d8b02582"><path d="M 218.867188 4.5625 L 221.742188 4.5625 C 222.222656 4.5625 222.613281 4.953125 222.613281 5.433594 L 222.613281 199.179688 C 222.613281 199.664062 222.222656 200.054688 221.742188 200.054688 L 218.867188 200.054688 C 218.386719 200.054688 217.996094 199.664062 217.996094 199.179688 L 217.996094 5.433594 C 217.996094 4.953125 218.386719 4.5625 218.867188 4.5625 Z M 218.867188 4.5625 " clip-rule="nonzero"/></clipPath></defs><path fill="#ffffff" d="M 147.496094 160.984375 L 107.0625 152.121094 C 106.957031 152.09375 106.855469 152.070312 106.753906 152.019531 C 106.003906 151.835938 105.285156 151.554688 104.640625 151.21875 C 103.222656 150.550781 102.035156 149.59375 101.390625 148.460938 C 101.007812 147.792969 100.621094 146.710938 101.007812 145.5 C 101.46875 144.132812 102.835938 143.074219 104.613281 142.429688 C 105.257812 142.199219 105.980469 142.046875 106.726562 141.941406 C 107.164062 141.890625 107.550781 141.789062 108.015625 141.789062 C 108.867188 141.789062 109.714844 141.890625 110.539062 142.070312 L 128.011719 145.910156 L 130.125 146.375 L 151 150.9375 C 151.101562 150.960938 151.207031 151.011719 151.308594 151.039062 C 152.054688 151.21875 152.777344 151.503906 153.421875 151.8125 C 154.839844 152.507812 156 153.433594 156.644531 154.570312 C 157.03125 155.238281 157.417969 156.320312 157.03125 157.53125 C 156.566406 158.898438 155.199219 159.957031 153.421875 160.597656 C 152.390625 160.960938 151.28125 161.21875 150.046875 161.21875 C 149.273438 161.21875 148.472656 161.113281 147.726562 160.960938 C 147.648438 160.933594 147.570312 160.960938 147.496094 160.933594 Z M 142.03125 152.378906 C 141.902344 152.945312 142.261719 153.511719 142.832031 153.640625 L 150.972656 155.417969 C 151.050781 155.445312 151.128906 155.445312 151.207031 155.445312 C 151.230469 155.445312 151.257812 155.417969 151.308594 155.417969 C 151.746094 155.394531 152.132812 155.085938 152.261719 154.621094 C 152.390625 154.054688 152.03125 153.488281 151.4375 153.359375 L 151.308594 153.332031 L 143.292969 151.578125 C 142.726562 151.449219 142.160156 151.8125 142.03125 152.378906 Z M 142.03125 152.378906 " fill-opacity="1" fill-rule="evenodd"/><path fill="#ffffff" d="M 110.539062 155.265625 L 136.824219 161.011719 L 146.488281 163.125 L 151 164.105469 C 153.578125 164.671875 155.691406 166.035156 156.667969 167.738281 C 157.054688 168.433594 157.441406 169.488281 157.054688 170.699219 C 156.332031 172.867188 153.472656 174.386719 150.046875 174.386719 C 149.480469 174.386719 148.886719 174.28125 148.292969 174.207031 C 148.035156 174.15625 147.753906 174.179688 147.496094 174.101562 L 145.820312 173.742188 L 117.058594 167.429688 L 114.457031 166.863281 L 107.0625 165.238281 C 104.484375 164.671875 102.371094 163.332031 101.390625 161.605469 C 101.007812 160.933594 100.621094 159.851562 101.007812 158.640625 C 101.46875 157.273438 102.835938 156.21875 104.613281 155.574219 C 105.257812 155.34375 105.980469 155.1875 106.726562 155.085938 C 107.164062 155.03125 107.550781 154.929688 108.015625 154.929688 C 108.867188 154.929688 109.714844 155.03125 110.539062 155.214844 Z M 143.140625 166.527344 L 150.972656 168.226562 C 151.050781 168.253906 151.128906 168.253906 151.207031 168.253906 C 151.695312 168.253906 152.132812 167.917969 152.238281 167.429688 C 152.367188 166.863281 152.003906 166.292969 151.410156 166.164062 L 143.242188 164.363281 C 142.675781 164.234375 142.109375 164.59375 141.980469 165.160156 C 141.953125 165.339844 142.03125 165.46875 142.082031 165.625 C 142.1875 165.984375 142.417969 166.320312 142.804688 166.421875 L 143.140625 166.5 Z M 143.140625 166.527344 " fill-opacity="1" fill-rule="evenodd"/><path fill="#ffffff" d="M 115.078125 169.414062 L 146.746094 176.371094 L 149.117188 176.886719 L 151 177.296875 C 153.550781 177.863281 155.691406 179.207031 156.667969 180.933594 C 157.054688 181.628906 157.441406 182.683594 157.054688 183.894531 C 156.332031 186.058594 153.472656 187.582031 150.070312 187.582031 C 149.632812 187.582031 149.195312 187.476562 148.757812 187.425781 C 148.371094 187.375 147.933594 187.375 147.519531 187.296875 L 146.644531 187.089844 L 110.722656 179.207031 L 108.660156 178.765625 L 107.0625 178.40625 C 104.484375 177.839844 102.371094 176.5 101.390625 174.773438 C 100.824219 173.792969 100.695312 172.761719 101.007812 171.808594 C 101.726562 169.644531 104.585938 168.125 107.988281 168.125 C 108.839844 168.125 109.691406 168.226562 110.515625 168.40625 L 115.050781 169.414062 Z M 143.292969 177.53125 C 142.726562 177.402344 142.160156 177.761719 142.03125 178.328125 C 141.902344 178.921875 142.261719 179.464844 142.832031 179.589844 L 147.46875 180.597656 L 149.632812 181.0625 L 150.972656 181.371094 C 151.050781 181.394531 151.128906 181.394531 151.207031 181.394531 C 151.695312 181.394531 152.132812 181.0625 152.238281 180.570312 C 152.367188 180.003906 152.003906 179.4375 151.410156 179.308594 L 149.375 178.871094 L 147.210938 178.378906 L 143.242188 177.53125 Z M 143.292969 177.53125 " fill-opacity="1" fill-rule="evenodd"/><g clip-path="url(#bc0409b292)"><path fill="#ffffff" d="M 110.488281 181.34375 L 145.898438 189.101562 C 142.984375 195.542969 136.542969 200.054688 129.019531 200.054688 C 118.785156 200.054688 110.464844 191.730469 110.464844 181.5 C 110.464844 181.445312 110.488281 181.394531 110.488281 181.34375 Z M 125.769531 196.085938 C 125.949219 195.515625 125.617188 194.925781 125.074219 194.769531 C 120.796875 193.480469 117.394531 190.207031 115.953125 185.984375 C 115.746094 185.441406 115.152344 185.15625 114.613281 185.3125 C 114.070312 185.492188 113.761719 186.113281 113.941406 186.652344 C 115.617188 191.523438 119.558594 195.3125 124.480469 196.78125 C 124.585938 196.804688 124.6875 196.832031 124.792969 196.832031 C 125.253906 196.832031 125.667969 196.546875 125.796875 196.058594 Z M 125.769531 196.085938 " fill-opacity="1" fill-rule="evenodd"/></g><g clip-path="url(#093720f328)"><path fill="#ffffff" d="M 160.226562 119.910156 C 154.941406 127.355469 150.40625 133.796875 150.070312 138.847656 L 150.070312 148.382812 L 151.644531 148.71875 L 153.757812 149.183594 L 156.179688 149.722656 L 156.179688 139.054688 C 156.308594 137.507812 157.363281 135.320312 158.910156 132.742188 C 160.585938 129.957031 162.855469 126.738281 165.199219 123.414062 C 165.921875 122.410156 166.511719 121.53125 166.925781 120.964844 C 167.59375 120.011719 168.1875 119.160156 168.652344 118.492188 C 171.382812 114.523438 175.199219 108.261719 177.878906 101.097656 C 179.757812 96.046875 181.097656 90.53125 181.097656 85.066406 C 181.097656 70.921875 175.351562 58.085938 166.050781 48.808594 C 156.746094 39.507812 143.9375 33.761719 129.765625 33.761719 C 115.617188 33.761719 102.785156 39.507812 93.507812 48.808594 C 84.203125 58.113281 78.457031 70.921875 78.457031 85.066406 C 78.457031 90.558594 79.796875 96.046875 81.679688 101.121094 C 84.359375 108.3125 88.171875 114.546875 90.902344 118.515625 C 91.316406 119.109375 91.910156 119.984375 92.628906 120.992188 C 93.015625 121.558594 93.660156 122.433594 94.355469 123.4375 C 96.238281 126.09375 98.066406 128.695312 99.535156 130.964844 C 101.003906 133.230469 102.164062 135.320312 102.835938 137.097656 L 103.222656 138.101562 L 104.277344 138.335938 L 106.675781 138.847656 L 109.921875 139.570312 L 109.019531 136.375 C 108.351562 134.03125 107.035156 131.453125 105.285156 128.644531 C 103.582031 125.886719 101.519531 123 99.355469 119.910156 C 98.636719 118.878906 98.042969 118.054688 97.65625 117.511719 C 97.191406 116.84375 96.625 116.042969 95.980469 115.089844 C 93.84375 111.972656 90.980469 107.359375 88.660156 102.023438 C 86.367188 96.765625 84.589844 90.867188 84.617188 85.066406 C 84.617188 72.59375 89.691406 61.28125 97.863281 53.113281 C 106.03125 44.945312 117.34375 39.867188 129.816406 39.867188 C 142.289062 39.867188 153.578125 44.945312 161.769531 53.113281 C 169.964844 61.308594 175.042969 72.621094 175.042969 85.066406 C 175.042969 89.808594 173.855469 94.628906 172.183594 99.085938 C 169.734375 105.605469 166.179688 111.378906 163.679688 115.0625 C 162.929688 116.144531 161.847656 117.667969 160.792969 119.1875 L 160.300781 119.910156 Z M 160.226562 119.910156 " fill-opacity="1" fill-rule="nonzero"/></g><g clip-path="url(#1cc4d3d1cf)"><path fill="#ff1c83" d="M 130.617188 27.574219 C 132.730469 27.574219 134.457031 25.847656 134.457031 23.734375 L 134.457031 8.402344 C 134.457031 6.289062 132.730469 4.5625 130.617188 4.5625 C 128.503906 4.5625 126.777344 6.289062 126.777344 8.402344 L 126.777344 23.734375 C 126.777344 25.847656 128.503906 27.574219 130.617188 27.574219 Z M 145.277344 30.539062 C 143.320312 29.738281 142.390625 27.472656 143.191406 25.539062 L 149.039062 11.367188 C 149.839844 9.40625 152.109375 8.480469 154.039062 9.277344 C 156 10.078125 156.925781 12.34375 156.128906 14.277344 L 150.277344 28.453125 C 149.480469 30.410156 147.210938 31.335938 145.277344 30.539062 Z M 114.25 31.207031 C 116.210938 30.410156 117.136719 28.140625 116.339844 26.210938 L 110.488281 12.035156 C 109.691406 10.078125 107.421875 9.148438 105.488281 9.949219 C 103.53125 10.746094 102.605469 13.015625 103.402344 14.949219 L 109.253906 29.121094 C 110.050781 31.078125 112.320312 32.007812 114.25 31.207031 Z M 114.25 31.207031 " fill-opacity="1" fill-rule="evenodd"/></g><path fill="#ff1c83" d="M 127.703125 72.261719 C 127.78125 71.617188 128.375 71.179688 129.019531 71.253906 C 129.660156 71.332031 130.101562 71.925781 130.023438 72.570312 C 129.867188 73.753906 130.203125 74.886719 130.875 75.789062 C 131.542969 76.667969 132.546875 77.3125 133.734375 77.464844 C 134.378906 77.542969 134.816406 78.136719 134.738281 78.78125 C 134.660156 79.425781 134.070312 79.863281 133.425781 79.785156 C 131.59375 79.527344 130.046875 78.574219 129.019531 77.207031 C 129.019531 77.183594 128.992188 77.183594 128.992188 77.15625 C 127.550781 77.59375 124.765625 78.007812 122.882812 75.507812 C 122.496094 74.992188 122.601562 74.246094 123.117188 73.859375 C 123.632812 73.472656 124.378906 73.574219 124.765625 74.089844 C 125.667969 75.273438 127.035156 75.222656 127.933594 75.015625 C 127.675781 74.140625 127.601562 73.214844 127.730469 72.261719 Z M 149.144531 74.886719 Z M 130.074219 65.121094 Z M 128.0625 63.910156 Z M 107.0625 92 Z M 108.609375 81.898438 Z M 110.617188 80.6875 Z M 108.425781 93.90625 Z M 146.722656 91.355469 C 148.011719 90.066406 148.808594 88.289062 148.808594 86.304688 C 148.808594 84.347656 148.011719 82.566406 146.722656 81.253906 C 145.433594 79.964844 143.65625 79.167969 141.671875 79.167969 C 141.027344 79.167969 140.484375 78.652344 140.484375 77.980469 C 140.484375 77.335938 141.027344 76.796875 141.671875 76.796875 C 144.300781 76.796875 146.671875 77.851562 148.371094 79.578125 C 150.097656 81.304688 151.152344 83.675781 151.152344 86.277344 C 151.152344 87 151.078125 87.695312 150.921875 88.367188 C 151.644531 88.574219 152.390625 88.703125 153.191406 88.703125 C 157.363281 88.703125 160.792969 85.480469 161.128906 81.382812 C 162.929688 80.300781 164.140625 78.316406 164.140625 76.046875 C 164.140625 73.367188 162.441406 71.074219 160.070312 70.222656 C 159.246094 71.769531 158.007812 73.007812 156.566406 73.882812 C 154.476562 75.121094 151.925781 75.558594 149.375 74.914062 L 149.273438 74.886719 L 149.144531 74.8125 C 148.578125 74.527344 148.320312 73.804688 148.628906 73.238281 C 148.886719 72.75 149.453125 72.492188 149.96875 72.621094 C 151.875 73.109375 153.808594 72.777344 155.378906 71.847656 C 156.953125 70.921875 158.164062 69.398438 158.652344 67.492188 C 158.910156 66.488281 158.9375 65.457031 158.757812 64.476562 C 157.855469 62.261719 156.128906 60.25 153.808594 58.910156 C 153.707031 58.886719 153.601562 58.859375 153.5 58.835938 C 153.242188 58.757812 153.007812 58.628906 152.855469 58.421875 C 152.570312 58.292969 152.261719 58.136719 151.953125 58.035156 C 148.65625 56.773438 145.203125 56.980469 142.46875 58.320312 C 141.050781 56.152344 138.605469 54.738281 135.820312 54.738281 C 134.121094 54.738281 132.546875 55.277344 131.257812 56.179688 C 131.492188 56.773438 131.644531 57.390625 131.75 58.007812 C 132.136719 60.40625 131.621094 62.929688 130.101562 65.070312 C 129.765625 65.535156 129.148438 65.714844 128.632812 65.429688 C 128.0625 65.148438 127.804688 64.425781 128.117188 63.859375 L 128.21875 63.703125 C 129.378906 62.105469 129.765625 60.175781 129.457031 58.394531 C 129.277344 57.363281 128.890625 56.359375 128.269531 55.484375 C 126.980469 54.609375 125.4375 54.09375 123.785156 54.09375 C 119.558594 54.09375 116.082031 57.390625 115.824219 61.566406 C 114.457031 60.457031 112.707031 59.789062 110.824219 59.789062 C 110.515625 59.789062 110.230469 59.8125 109.949219 59.839844 C 109.820312 59.941406 109.691406 60.019531 109.511719 60.046875 C 107.601562 60.535156 106.082031 61.746094 105.15625 63.316406 C 104.226562 64.890625 103.890625 66.824219 104.382812 68.730469 C 104.871094 70.636719 106.082031 72.15625 107.65625 73.085938 C 109.226562 74.011719 111.160156 74.347656 113.066406 73.859375 L 113.222656 73.832031 L 113.375 73.832031 C 114.019531 73.832031 114.5625 74.347656 114.5625 75.015625 C 114.5625 75.585938 114.148438 76.074219 113.632812 76.175781 C 111.109375 76.796875 108.582031 76.359375 106.496094 75.121094 C 104.40625 73.882812 102.785156 71.847656 102.140625 69.296875 L 102.113281 69.140625 C 102.011719 68.730469 101.960938 68.316406 101.90625 67.90625 C 98.273438 68.652344 95.542969 71.847656 95.542969 75.714844 C 95.542969 77.957031 96.46875 80.015625 97.992188 81.460938 C 96.855469 82.824219 96.1875 84.578125 96.1875 86.511719 C 96.1875 87.773438 96.46875 88.984375 97.011719 90.042969 C 97.113281 90.117188 97.191406 90.195312 97.269531 90.300781 C 98.402344 91.898438 100.105469 92.875 101.90625 93.183594 C 103.710938 93.496094 105.617188 93.082031 107.214844 91.949219 C 108.8125 90.8125 109.792969 89.113281 110.101562 87.335938 C 110.410156 85.53125 110 83.625 108.867188 82.027344 L 108.761719 81.871094 C 108.480469 81.28125 108.710938 80.582031 109.277344 80.300781 C 109.792969 80.042969 110.4375 80.195312 110.746094 80.660156 C 112.265625 82.800781 112.78125 85.324219 112.394531 87.722656 C 112.007812 90.117188 110.695312 92.359375 108.554688 93.882812 C 108.273438 94.085938 107.988281 94.269531 107.679688 94.449219 C 107.679688 94.523438 107.679688 94.601562 107.679688 94.679688 C 107.679688 99.085938 111.238281 102.644531 115.644531 102.644531 C 117.988281 102.644531 120.101562 101.636719 121.542969 100.015625 L 121.648438 99.886719 C 121.777344 99.9375 121.90625 100.015625 122.007812 100.066406 C 122.136719 104.371094 120.769531 109.703125 117.832031 116.09375 C 124.738281 112.074219 129.738281 105.503906 132.859375 96.433594 C 133.011719 96.433594 133.167969 96.457031 133.347656 96.457031 C 135.613281 96.457031 137.597656 95.222656 138.679688 93.417969 C 138.449219 91.84375 137.726562 90.453125 136.671875 89.371094 C 135.382812 88.082031 133.605469 87.285156 131.621094 87.285156 C 130.976562 87.285156 130.433594 86.742188 130.433594 86.097656 C 130.433594 85.453125 130.949219 84.914062 131.621094 84.914062 C 134.25 84.914062 136.621094 85.96875 138.320312 87.695312 C 139.839844 89.214844 140.847656 91.226562 141.050781 93.496094 C 141.105469 93.519531 141.15625 93.546875 141.207031 93.570312 C 141.363281 93.496094 141.566406 93.441406 141.75 93.441406 C 143.707031 93.441406 145.484375 92.644531 146.800781 91.355469 Z M 136.773438 64.683594 C 136.386719 64.167969 136.492188 63.421875 137.007812 63.035156 C 137.523438 62.648438 138.269531 62.75 138.65625 63.265625 C 139.558594 64.453125 140.921875 64.398438 141.824219 64.195312 C 141.566406 63.316406 141.492188 62.390625 141.621094 61.4375 C 141.695312 60.792969 142.289062 60.355469 142.933594 60.433594 C 143.578125 60.507812 144.015625 61.101562 143.9375 61.746094 C 143.785156 62.929688 144.117188 64.066406 144.789062 64.96875 C 145.457031 65.84375 146.464844 66.460938 147.648438 66.640625 C 148.292969 66.71875 148.730469 67.3125 148.65625 67.957031 C 148.578125 68.601562 147.984375 69.039062 147.339844 68.960938 C 145.511719 68.703125 143.964844 67.75 142.933594 66.382812 C 142.933594 66.359375 142.90625 66.359375 142.90625 66.332031 C 141.464844 66.769531 138.679688 67.183594 136.800781 64.683594 Z M 117.1875 86.382812 C 119.019531 86.640625 120.566406 87.59375 121.597656 88.960938 C 121.597656 88.984375 121.621094 88.984375 121.621094 89.011719 C 123.066406 88.574219 125.847656 88.160156 127.730469 90.660156 C 128.117188 91.175781 128.011719 91.921875 127.496094 92.308594 C 126.980469 92.695312 126.234375 92.59375 125.847656 92.078125 C 124.945312 90.890625 123.582031 90.941406 122.679688 91.148438 C 122.9375 92.027344 123.011719 92.953125 122.882812 93.90625 C 122.808594 94.550781 122.214844 94.988281 121.570312 94.910156 C 120.925781 94.835938 120.488281 94.242188 120.566406 93.597656 C 120.71875 92.414062 120.386719 91.277344 119.714844 90.375 C 119.042969 89.5 118.039062 88.882812 116.855469 88.703125 C 116.210938 88.625 115.773438 88.03125 115.847656 87.386719 C 115.925781 86.742188 116.519531 86.304688 117.164062 86.382812 Z M 117.1875 86.382812 " fill-opacity="1" fill-rule="evenodd"/><g fill="#f4f6fc" fill-opacity="1"><g transform="translate(252.783483, 129.989337)"><g><path d="M 39.84375 0 L 36.859375 -9.015625 L 17.59375 -9.015625 L 14.609375 0 L 0.6875 0 L 19.34375 -53.828125 L 35.25 -53.828125 L 53.828125 0 Z M 20.875 -18.96875 L 33.5625 -18.96875 L 27.21875 -38.078125 Z M 20.875 -18.96875 "/></g></g></g><g fill="#f4f6fc" fill-opacity="1"><g transform="translate(305.394068, 129.989337)"><g><path d="M 5.734375 0 L 5.734375 -56.59375 L 18.8125 -56.59375 L 18.8125 0 Z M 5.734375 0 "/></g></g></g><g fill="#f4f6fc" fill-opacity="1"><g transform="translate(328.028733, 129.989337)"><g><path d="M 5.734375 0 L 5.734375 -56.59375 L 18.8125 -56.59375 L 18.8125 0 Z M 5.734375 0 "/></g></g></g><g fill="#ff1c83" fill-opacity="1"><g transform="translate(350.669304, 129.989337)"><g><path d="M 38.234375 -53.828125 L 38.234375 -43.890625 L 18.8125 -43.890625 L 18.8125 -32.34375 L 35.9375 -32.34375 L 35.9375 -22.40625 L 18.8125 -22.40625 L 18.8125 -9.9375 L 38.234375 -9.9375 L 38.234375 0 L 5.734375 0 L 5.734375 -53.828125 Z M 38.234375 -53.828125 "/></g></g></g><g fill="#ff1c83" fill-opacity="1"><g transform="translate(392.497723, 129.989337)"><g><path d="M 2.828125 -29.828125 C 2.828125 -33.597656 4.429688 -36.753906 7.640625 -39.296875 C 10.859375 -41.847656 15.207031 -43.125 20.6875 -43.125 C 26.164062 -43.125 30.585938 -41.875 33.953125 -39.375 C 37.316406 -36.882812 39.101562 -33.472656 39.3125 -29.140625 L 25.921875 -29.140625 C 25.765625 -30.617188 25.253906 -31.625 24.390625 -32.15625 C 23.523438 -32.6875 22.226562 -32.953125 20.5 -32.953125 C 17.082031 -32.953125 15.375 -31.910156 15.375 -29.828125 C 15.375 -27.941406 17.460938 -26.640625 21.640625 -25.921875 C 25.867188 -25.210938 29.71875 -24.117188 33.1875 -22.640625 C 34.96875 -21.921875 36.457031 -20.734375 37.65625 -19.078125 C 38.851562 -17.421875 39.453125 -15.394531 39.453125 -13 C 39.453125 -9.019531 37.742188 -5.769531 34.328125 -3.25 C 30.921875 -0.726562 26.613281 0.53125 21.40625 0.53125 C 16.207031 0.53125 11.875 -0.648438 8.40625 -3.015625 C 4.945312 -5.390625 3.0625 -8.894531 2.75 -13.53125 L 16.140625 -13.53125 C 16.492188 -10.9375 18.328125 -9.640625 21.640625 -9.640625 C 23.171875 -9.640625 24.429688 -9.992188 25.421875 -10.703125 C 26.421875 -11.421875 26.921875 -12.335938 26.921875 -13.453125 C 26.921875 -14.578125 26.09375 -15.46875 24.4375 -16.125 C 22.78125 -16.789062 20.773438 -17.351562 18.421875 -17.8125 C 16.078125 -18.269531 13.71875 -18.84375 11.34375 -19.53125 C 8.976562 -20.21875 6.96875 -21.414062 5.3125 -23.125 C 3.65625 -24.832031 2.828125 -27.066406 2.828125 -29.828125 Z M 2.828125 -29.828125 "/></g></g></g><g fill="#ff1c83" fill-opacity="1"><g transform="translate(433.026177, 129.989337)"><g><path d="M 23.859375 -11.09375 L 28.515625 -11.09375 L 28.515625 0 L 21.875 0 C 17.082031 0 13.375 -1.054688 10.75 -3.171875 C 8.125 -5.285156 6.8125 -8.914062 6.8125 -14.0625 L 6.8125 -31.8125 L 2.828125 -31.8125 L 2.828125 -42.671875 L 6.8125 -42.671875 L 6.8125 -53.0625 L 19.875 -53.0625 L 19.875 -42.671875 L 28.453125 -42.671875 L 28.453125 -31.8125 L 19.875 -31.8125 L 19.875 -14.0625 C 19.875 -12.082031 21.203125 -11.09375 23.859375 -11.09375 Z M 23.859375 -11.09375 "/></g></g></g><g fill="#8c52ff" fill-opacity="1"><g transform="translate(462.860165, 129.989337)"><g/></g></g><g clip-path="url(#5cac6150d5)"><g clip-path="url(#33d8b02582)"><path fill="#ff1c83" d="M 217.996094 4.5625 L 222.613281 4.5625 L 222.613281 200.050781 L 217.996094 200.050781 Z M 217.996094 4.5625 " fill-opacity="1" fill-rule="nonzero"/></g></g></svg>