<svg xmlns="http://www.w3.org/2000/svg" xmlns:xlink="http://www.w3.org/1999/xlink" width="500" zoomAndPan="magnify" viewBox="0 0 375 374.999991" height="500" preserveAspectRatio="xMidYMid meet" version="1.0"><defs><clipPath id="44e0abc9d3"><path d="M 55.1875 63.304688 L 319.804688 63.304688 L 319.804688 311.554688 L 55.1875 311.554688 Z M 55.1875 63.304688 " clip-rule="nonzero"/></clipPath></defs><g clip-path="url(#44e0abc9d3)"><path fill="#ffffff" d="M 177.253906 189.550781 L 158.011719 208.886719 L 85.234375 136.105469 L 158.011719 63.328125 L 177.253906 81.628906 L 140.347656 118.652344 L 223.507812 118.652344 C 248.597656 118.628906 272.679688 128.402344 290.671875 145.878906 C 308.644531 163.359375 319.097656 187.15625 319.804688 212.222656 L 319.804688 214.921875 C 319.898438 240.484375 309.820312 265.03125 291.800781 283.167969 C 273.757812 301.304688 249.304688 311.546875 223.742188 311.617188 L 55.1875 311.617188 L 55.1875 284.0625 L 223.742188 284.0625 C 247.777344 283.144531 269.601562 269.777344 281.371094 248.777344 C 293.140625 227.773438 293.140625 202.167969 281.371094 181.1875 C 269.601562 160.1875 247.777344 146.820312 223.742188 145.878906 L 133.792969 145.878906 L 177.464844 189.550781 L 177.253906 189.550781 " fill-opacity="1" fill-rule="nonzero"/></g></svg>