<svg xmlns="http://www.w3.org/2000/svg" xmlns:xlink="http://www.w3.org/1999/xlink" width="40" zoomAndPan="magnify" viewBox="0 0 30 30.000001" height="40" preserveAspectRatio="xMidYMid meet" version="1.0"><defs><clipPath id="1914dbe7b0"><path d="M 4.839844 7.589844 L 25.160156 7.589844 L 25.160156 21.378906 L 4.839844 21.378906 Z M 4.839844 7.589844 " clip-rule="nonzero"/></clipPath></defs><g clip-path="url(#1914dbe7b0)"><path fill="#ffffff" d="M 15 7.589844 C 10.382812 7.589844 6.441406 10.457031 4.84375 14.511719 C 6.441406 18.5625 10.382812 21.433594 15 21.433594 C 19.617188 21.433594 23.558594 18.5625 25.15625 14.511719 C 23.558594 10.457031 19.621094 7.589844 15 7.589844 Z M 15 19.128906 C 12.453125 19.128906 10.382812 17.058594 10.382812 14.511719 C 10.382812 11.964844 12.453125 9.894531 15 9.894531 C 17.546875 9.894531 19.617188 11.964844 19.617188 14.511719 C 19.617188 17.058594 17.546875 19.128906 15 19.128906 Z M 15 11.742188 C 13.472656 11.742188 12.230469 12.984375 12.230469 14.511719 C 12.230469 16.039062 13.472656 17.28125 15 17.28125 C 16.527344 17.28125 17.769531 16.039062 17.769531 14.511719 C 17.769531 12.984375 16.527344 11.742188 15 11.742188 Z M 15 11.742188 " fill-opacity="1" fill-rule="nonzero"/></g></svg>